<svg width="1160" height="263" xmlns="http://www.w3.org/2000/svg"><g fill="none" fill-rule="evenodd"><path d="M937.424 42.238c-.286-.006-.592.106-.848-.158.132-.53.55-.26.848-.314v.472" fill="#7076F0"/><path d="M482.59 146.695c-2.102-.152-3.419-.592-4.859-1.624-.386-.035-.76 0-1.15-.157-3.15-1.279-6.592-2.176-9.872-3.296-2.425-.828-4.625-1.767-6.426-3.134-1.66-1.258-3.726-2.12-5.973-2.864-1.754-.58-3.437-1.298-4.792-2.299-.523-.386-1.085-.72-1.876-.949-1.656-.476-3.004-1.271-3.934-2.34h-1.6c-1.139-1.332-3.785-1.527-4.947-2.705-1.21-1.234-3.146-1.978-4.161-3.327 1.252.57 2.793.683 3.983 1.365 1.26.72 2.12 1.672 3.417 2.381 1.218.668 2.484 1.351 3.27 2.314h1.53c2.406.65 3.55 1.817 5.145 2.588 3.476 1.686 6.923 3.414 10.773 4.727.948.322 2.014.626 2.702 1.135 2.32 1.724 5.228 2.818 8.225 3.9 2.02.73 4.16 1.424 5.647 2.687 1.807.29 3.445.807 4.862 1.623.227.03.495.03.438.278-.342.02-.366-.143-.402-.303zM249.025 58.404c-2.374-.607-4.848-1.109-7.211-1.733-2.205-.582-4.272-1.277-6.24-1.98-2.54-.904-5.502-1.44-7.935-2.427-.73-.298-2.023-.47-3.082-.639-3.79-.602-6.88-1.787-10.127-2.836-.967-.312-1.824-.657-3.027-.741-.591-.04-1.23-.163-1.702-.342-3.825-1.456-8.297-2.167-12.874-2.805-2.556-.358-5.063-.842-7.086-1.85-1.75.08-3.261-.554-4.957-.608-1.96-.063-3.351-.662-4.663-1.117-2.723-.945-5.698-1.462-8.837-1.709a18.64 18.64 0 01-4-.776c-2.22-.675-4.505-1.152-6.98-1.578a360.394 360.394 0 01-8.904-1.668c-2.268-.452-4.415-1.023-7.029-1.125-1.952-.076-3.806-.707-5.72-1.067-2.392-.452-4.717-.942-7.342-1.121-1.973-.135-3.819-.714-6.122-1.174-2.437-.129-5.341-.195-8.12-.654a2.891 2.891 0 00-.638-.008c-2.98.214-5.834-.319-8.785-.382-1.867-.039-3.86-.28-5.774-.443-2.692-.231-5.515-.092-8.286-.114-1.201.605-2.897.087-4.272.444 1.402.958 3.645.614 5.399.936 2.047.377 4.007.036 6.484.306.346.087 1.176.294 2.156.541.784 0 1.759.046 2.706-.008 2.143-.12 4.103.31 6.16.44 2.54.16 4.93.657 7.362 1.043.754.12 1.484.13 2.183.084 1.642-.105 3.248.084 4.53.45 2.752.787 5.758 1.13 8.774 1.416 1.879.178 3.504.552 5.213.907 3.4.704 6.417 1.884 10.299 2.014.476.016 1.075.16 1.367.342 1.883 1.163 4.834 1.382 7.36 1.902 1.552.318 3.107.716 4.795.938 1.663.216 3.313.52 4.943.815 2.059.368 3.959.879 5.883 1.349 3.97.972 8.1 1.734 12.275 2.44.594.1 1.2.228 1.683.368 3.852 1.111 8.126 1.71 12.256 2.474 2.34.433 4.57.85 6.419 1.766 1.34.667 3.166 1.095 5.044 1.416 1.342.228 2.652.52 3.855.92 2.88.958 6.005 1.716 9.073 2.508 3.039.785 5.807 1.767 8.687 2.662 2.279.71 4.555 1.419 6.94 2.03 1.951.498 3.892.983 5.406 1.782.523.277 1.26.372 1.802.593 1.69.686 4.002.962 5.273 1.917 2.935.465 4.96 1.63 7.56 2.347a74.445 74.445 0 0113.89 5.34c1.472.74 3.234 1.302 5.055 1.794.76.204 1.383.448 2.012.72 2.308.99 4.012 2.307 6.808 3.032 2.826 2.07 7.326 3.262 10.89 4.952 1.57.744 3.593 1.324 4.88 2.19 2.216 1.488 4.971 2.706 7.626 3.973 1.864.89 3.661 1.811 5.472 2.726 1.584.802 3.44 1.448 4.878 2.34 1.45.901 3.253 1.664 4.685 2.379.675.146.754-.196 1.318-.05 1.63.422 3.065.973 3.82 1.778 1.11 1.182 2.975 2.067 4.956 2.787 2.001.723 3.537 1.651 4.854 2.563 1.789 1.236 4.329 1.887 6.703 2.858.487.276.1.81 1.001 1.16 1.413.552 2.445 1.36 3.934 1.84 1.8.579 3.697 1.082 5.505 2.06.19.55 1.579 1.025 2.66 1.589 1.554.813 2.814 1.77 4.734 2.412.084.028.16.07.225.11 3.006 1.796 6.57 3.3 10.247 4.747 1.86 1.642 5.363 2.401 8.04 3.603 2.125.957 4.096 1.997 6.149 2.993.743.36 1.546.668 2.44.956 1.608.519 3.176 1.134 3.633 2.016.85.452 1.81.532 2.682.75.67.873 2.23 1.266 4.01 1.607.327.996 2.317 1.27 3.727 1.71 1.97.62 3.237 1.607 5.335 2.148.785.201 1.108.828 1.726 1.328.812.08 1.392.464 2.067.788.903.431 1.693.958 2.994 1.108.912.106 1.49.408 1.998.725 1.473.91 3.515 1.504 5.325 2.192 1.389.526 3.16.913 4.909 1.332 1.121 1.257 3.892 1.856 5.474 2.944 1.557.155 2.894.391 3.95.94 1.808.94 3.95 1.709 6.172 2.358 3.746 1.094 6.92 2.594 10.87 3.538.915.217 1.533.722 2.344 1.063 2.216.935 5 1.43 7.377 2.252.518.18 1.23.326 2.001.389.776.065 1.86.183 2.083.76.049.13.375.291.645.331 2.978.447 5.012 1.804 8.221 2.032.455.034.844.288 1.258.441.833.31 1.579.23 2.208-.092 2.29.512 4.552 1.002 6.784 1.523a50.56 50.56 0 014.31 1.218c2.85.935 5.961 1.533 9.497 1.662 1.32.047 2.807.223 4.136.546.879.214 1.208.53 1.54.894 1.83-.181 3.232.315 4.83.704 1.206.067 2.55-.084 3.88.283.764.213 1.85.04 2.602-.275 1.77.389 3.506.706 5.442.632 1.475-.057 2.752.409 4.304.34 1.437-.065 2.978-.202 4.38.133.354.084.509.036.784-.03 1.151-.279 2.23-.152 3.03.209 6.34-.834 12.718-.431 19.083-1.08.373-.196.528-.625 1.353-.836 1.043-.267 2.347-.167 3.232-.458.925-.304 1.788-.414 2.844-.525a23.395 23.395 0 004.46-.936c1.059-.329 2.167-.561 3.283-.815 1.69-.385 3.443-.707 4.815-1.392.624-.313 1.593-.458 2.889-.814.062-.022-.232-.32-.041-.565.593-.288 1.642-.052 2.2-.483 1.562-1.208 4.524-1.797 5.82-3.15.278-.288 1.211-.437 1.66-.658 2.339-1.15 5.519-1.966 6.335-3.76.256-.565 1.547-.837 2.374-1.367.52-1.289 1.642-2.489 3.877-3.468 2.763-1.213 3.966-2.932 5.21-4.586.855-1.138 1.762-2.24 3.134-3.26 1.521-1.132 2.678-2.348 3.433-3.676.274-.487.585-1.034 1.276-1.528.95-.676 1.332-1.56 1.81-2.377 1.201-2.024 2.285-4.063 3.504-6.085.145-.243.607-.551.319-.714-.825-.461-.16-.958.144-1.227.803-.708.798-1.597 2.077-2.184.155-.07.384-.176.362-.25-.318-1.02 1.184-1.854 1.26-2.8.099-1.245.986-2.37 1.588-3.545.601-1.169.99-2.369 1.72-3.519.637-1.004.264-2.161 1.876-3.008v-2.354c.411-.378.798-.74 1.293-1.196-.498-1.274.852-2.494 1.6-3.739 1.1-1.834 2.176-3.662 2.916-5.541.49-1.243 1.424-2.447 1.253-3.755 2.333-1.702 3.285-3.678 4.494-5.604 1.715-2.732 3.234-5.5 5.2-8.19 1.598-2.189 3.604-4.314 6.53-6.194.54-.345.902-.77 1.182-1.225.545-.883.918-1.873 2.889-2.358 2.352-2.126 6.47-3.61 8.73-5.772.142-.135.384-.269.645-.346 3.673-1.065 6.085-2.879 9.798-3.929 1.347-.38 2.48-.968 3.615-1.476 1.952-.875 4.247-1.548 6-2.534 2.586-1.452 5.877-2.438 9.318-3.335 3.929-1.02 7.71-2.182 11.687-3.151 3.128-.761 6.471-1.323 10.035-1.39 1.57-.03 2.95-.669 4.434-.248 2.886-.912 6.011-1.02 9.022-1.342 3.659-.394 7.353-.317 11.042-.288.833.007 1.318-.304 2.295-.347.939.22 2.123.353 3.41.342 3.45-.025 6.951-.188 10.201.61 2.886-.157 5.587.294 8.208.742 2.118.362 4.274.748 6.289 1.221 3.267.77 6.762 1.18 10.124 1.79 2.401.436 4.606 1.09 7.198 1.336 3.743.354 6.925 1.497 10.614 1.996 3.67.494 7.075 1.352 10.606 2.037 3.534.685 6.735 1.715 10.372 2.276.292.046.564.249.798.23 2.2-.172 3.779.47 5.431.98 2.39.737 5.224.917 7.699 1.548 3.362.859 7.14 1.231 10.521 2.034 2.21.527 4.359 1.134 6.646 1.595 3.217.65 6.373 1.378 9.511 2.099 2.32.532 4.928.728 7.035 1.499.844.308 2.006.242 2.962.391 4.29.668 8.608 1.327 12.743 2.191 2.224.465 4.293 1.126 6.55 1.62 3.863.842 7.802 1.533 11.847 2.102.395.056.961.013 1.187.133 1.892 1.016 4.484 1.192 7.005 1.44.452.043.748.172 1.116.262 2.943.731 6.038 1.255 9.174 1.76 3.016.486 5.94 1.135 8.804 1.817 1.19.283 2.129.346 3.291.008 1.421.557 3.136.684 4.824.534 3.52.951 6.202 1.205 10.217 1.333 2.744.09 5.502.366 8.175.704 4.628.585 8.44.627 13.617.237 2.05-.154 4.214-.08 6.343.05 2.488.153 4.996.344 7.527.226.42-.02.923.04 1.25-.052 2.205-.628 4.606-.613 7.024-.581 1.39.02 2.613-.274 3.819-.559 2.445-.575 4.944-.98 7.712-1.043 1.274-.028 2.62-.308 3.76-.625 3.52-.973 7.241-1.75 10.747-2.745 1.939-.55 3.352-1.366 5.284-1.896 2.225-.61 4.098-1.507 6.534-1.985.738-.144 1.462-.5 1.846-.848.988-.894 2.67-1.467 3.934-2.225 2.77-1.664 6.264-3.061 8.09-5.079.289-.315.964-.21 1.154-.444.15-.188.164-.4.254-.648.356-.274 1.502-.107 1.609-.622.65-1.76 3.28-3.088 4.554-4.777-.182-.165-.506-.356-1.233-.46-1.4.4-2.497 1.032-3.098 1.8-2.17 2.776-6.245 4.926-9.915 7.183-1.516.933-3.155 1.879-4.96 2.693-3.122 1.41-6.3 2.814-10.162 3.746-1.138.275-2.27.53-3.085 1.029-.539.328-1.274.513-2.033.705-3.011.767-5.894 1.675-8.998 2.333-2.706.571-5.352 1.234-8.482 1.338-2.94.098-5.842.547-8.725.911-2.516.318-4.998.638-7.636.624-5.35-.028-10.7-.005-16.048-.01-2.306-.002-4.707.17-6.842-.337-1.53-.364-3.062-.116-4.59-.242-4.472-.369-8.83-.931-13.23-1.445-3.697-.432-7.28-1.054-10.995-1.416-1.454-.14-2.51-.753-4.062-.703-2.344-.878-5.338-1.017-7.862-1.665-1.127-.29-2.243-.086-3.368-.29-1.848-.333-3.677-.706-5.343-1.18-3.54-1-7.4-1.394-11.276-1.9-3.948-.517-7.764-1.347-11.26-2.45-3.318-1.049-6.988-1.697-10.767-2.219-1.279-.178-2.746-.277-3.737-.656-2.676-1.022-5.766-1.513-8.902-2.008-1.364-.215-2.772-.446-3.975-.812-4.22-1.282-9.027-1.865-13.549-2.776-1.99-.402-3.778-.984-5.828-1.343-1.898-.33-4.027-.478-5.592-1.204-2.366-.029-4.415-.548-6.357-1.112-2.852-.83-5.899-1.4-9.038-1.876-1.587-.24-3.068-.583-4.53-.961-1.456-.38-2.931-.736-4.53-.964a16.13 16.13 0 01-2.746-.651c-2.344-.755-5.118-1.03-7.808-1.348-1.726-.206-3.302-.414-4.718-1.036-1.625-.713-3.933-.837-5.967-1.162-5.559-.887-11.012-1.908-16.445-2.96-1.046-.202-2.118-.448-3.207-.492-.901-.035-1.62-.23-2.339-.394-3.326-.75-7.745-1.24-11.221-1.567-2.633-.248-5.287-.08-7.827-.32-2.311-.217-4.617-.385-6.874-.232-2.972.202-6.043.063-8.932.58-.38.068-.852.017-1.276.015-3.673-.024-7.146.518-10.713.821-2.945.25-5.76.88-8.855.767-1.117-.04-2.105.474-3.324.317-1.941.803-4.61.732-6.74 1.49-2.876 1.025-6.27 1.721-9.466 2.53-1.209.304-2.328.658-3.466 1.004-2.376.72-4.693 1.486-7.097 2.186-.667.193-1.31.414-1.639.712-1.677 1.516-4.606 2.377-7.271 3.36-.68.25-1.29.524-1.908.798-1.092.482-2.077 1.006-3.403 1.37-1.435.395-2.946.81-3.488 1.676-1.889.354-2.75 1.21-3.911 1.921-2.766 1.694-5.68 3.324-8.671 4.925-1.647.88-3.223 1.848-3.893 3.07-.177.33-.71.619-1.119.913-2.164 1.557-3.547 3.28-4.483 5.096-.333.636-1.435 1.132-1.392 1.837-2.017 1.136-2.757 2.618-4.426 3.874.416.993-.395 1.912-.912 2.836-.408.726-.912 1.438-1.203 2.18-.455 1.156-1.655 2.164-2.638 3.22-1.2 1.288-2.5 2.578-2.24 4.172-1.46.617-.98 1.639-1.708 2.469-.767.87-1.07 1.763-.838 2.751-1.26 1.092-1.821 2.3-2.03 3.591-.164.986-.496 2.056-1.455 2.897-1.206 1.05-.718 2.325-2.28 3.295-.314.195.086.633-.096.92-.28.43-.784.826-1.25 1.292.003 1.064-.212 2.14-.953 3.255-.683 1.026-1.483 2.156-.854 3.286-1.065.848-1.881 1.683-1.302 2.582-.773.604-1.225 1.153-1.551 1.756-.716 1.307-1.996 2.52-2.715 3.84-.372.683-.106 1.404-.892 2.076-.55.468-.635 1.068-1.694 1.404-.868-.77.273-1.402.66-2.046.497-.834 1.01-1.629 1.08-2.52.098-1.27 1.282-2.423 2.251-3.587 1.1-1.313 2.118-2.625 2.213-4.077.055-.859.823-1.688 1.397-2.46.907-1.207 1.01-2.468 1.707-3.678.318-.552.743-1.046 1.26-1.61.297-2.01 1.421-4.013 2.295-6.04.34-.786.83-1.553 1.084-2.359.31-.984 1.44-1.866 2.003-2.842.57-.985 1.32-1.939 1.12-2.973-.156-.795 1.028-1.47.672-2.266 1.372-1.072 1.304-2.38 2.757-3.506 1.296-1.003 2.07-2.29 2.369-3.556.06-.251-.101-.51.261-.75 1.582-1.047 1.764-2.354 2.633-3.535.588-.796.647-1.668 1.246-2.487 1.438-1.956 3.234-3.826 5.186-5.664.901-.847 1.416-1.766 2.979-2.474 1.061-.48 1.766-1.261 2.14-1.97.753-1.437 2.836-2.392 4.61-3.473 1.773-1.078 3.698-2.112 5.209-3.273a11.288 11.288 0 013.397-1.811c1.538-.502 2.801-1.109 4.007-1.747 2.045-1.084 4.087-2.143 6.918-2.744 1.94-.412 3.019-1.33 4.524-1.987 2.126-.93 4.544-1.704 6.45-2.757 1.554-.859 3.52-1.44 5.561-1.97 4.386-1.135 8.51-2.503 13.067-3.492.833-.182 1.46-.596 2.18-.903.82-.049 1.596-.011 2.432-.238a19.874 19.874 0 015.32-.688c1.036.01 1.752-.29 2.68-.373 4.24-.371 8.505-.683 12.572-1.457 1.392-.265 3.134-.366 4.558-.344 4.685.078 9.31-.654 13.916-.326 3.809.273 7.582.207 11.608.28 1.497.801 3.898.765 5.926.864 3.085.148 5.919.582 8.592 1.206 4.565 1.065 9.403 1.749 14.11 2.601 2.499.452 4.813 1.124 7.473 1.401 1.448.151 2.92.361 4.263.81 1.225.411 2.842.544 4.285.8 1.633.29 3.389.267 4.992.758 3.218.984 6.79 1.645 10.383 2.252.485.081.961.188 1.408.313 2.518.706 5.148 1.28 8.003 1.559.439.042.76.172 1.138.228 1.528.226 2.597.848 4.062 1.1 1.35.233 3.054.206 4.07.613 1.835.734 4.435.597 6.046 1.462 2.54-.125 4.225 1.08 6.754 1.03 1.037-.02 1.41.842 2.747.616 2.752 1.136 6.395 1.41 9.378 2.318 2.388.725 4.868 1.304 7.694 1.45.846.046 1.113.492 1.794.603 2.039.332 3.751.98 6.128 1.044 2.156.057 4.238.693 6.375 1.04 3.855.623 7.22 1.754 10.936 2.512 3.495.712 6.882 1.563 10.786 1.766 2.123.11 4.01.753 5.793 1.364.433.147.82.449 1.238.455 2.946.048 5.227.909 7.783 1.432 1.432.294 3.082.147 4.52.477.269.062.672-.012.928.055 2.175.572 4.331 1.16 6.7 1.8 3.484.082 7.028.478 10.584 1.144 2.414.453 5.088.739 7.835.865 3.128.142 6.334.261 9.468.713 3.22.465 6.67.872 10.127.17 1.28-.26 2.7.113 4.1.088.805-.014 1.57.197 2.575-.012.898-.189 2.191-.211 3.106-.043 2.094.383 4 .122 6.079.03 2.605-.113 5.148-.611 7.723-.383 3.106-.7 6.098-1.43 9.561-1.274 5.807-1.248 11.387-2.71 16.63-4.43 2.609-.856 5.383-1.616 7.661-2.752 1.397-.696 3.313-1.225 4.478-2.009 2.287-1.536 5.587-2.668 7.253-4.438.82-.87 2.379-1.441 3.849-2.225.057-1.844 2.937-3.319 4.064-5.19-1.818-.151-2.115.855-3.315.704-2.143 1.871-3.893 3.696-6.738 5.228-3.046 1.64-5.766 3.426-8.978 5-1.865.913-3.877 1.753-6.169 2.365-5.254 1.403-9.947 3.266-15.455 4.46-1.6.348-3.392.487-4.636.968-3.44.278-6.751.311-9.876.995-1.479.325-3.305.243-4.884.409-2.107.22-4.266.44-6.229.207-3.487-.413-6.95-.168-10.418-.266-1.16-.032-2.325-.048-3.106.342-1.157-.07-1.884-.387-2.924-.365-3.24.067-6.343-.462-9.514-.697-3.327-.247-6.575-.761-9.85-1.172-3.574-.446-7.075-1.03-10.728-1.335-.583-.049-1.098-.284-1.647-.428-3.011-.79-6.254-1.245-9.504-1.74-2.99-.454-6.057-.857-8.744-1.781-2.695-.927-5.99-1.263-9.169-1.625-4.029-.457-7.984-1.02-11.366-2.212-2.89-1.02-6.302-1.45-9.41-2.212-.281-.07-.537-.163-.95-.29h-2.742c-1.941-.473-3.48-.973-4.947-1.577-1.192-.491-2.907-.794-4.478-.921-2.197-.178-4.23-.412-5.997-1.116-.8-.319-1.968-.343-2.828-.563-1.843-.475-3.915-.668-5.677-1.203-.65-.195-1.29-.386-2.055-.294-1.064.13-1.968-.147-2.63-.402-3.653-1.41-8.011-2.044-12.296-2.722-2.973-.472-5.902-.94-8.265-1.964-1.054-.457-2.363-.3-3.523-.524-1.908-.367-3.88-.664-5.695-1.146-2.27-.602-4.672-1.04-7.116-1.444a11.76 11.76 0 01-2.42-.68c-1.985-.776-4.293-1.127-6.858-1.213-2.4-.079-4.641-.532-6.5-1.293-1.25-.513-2.483-.83-4.169-.929-1.578-.093-3.073-.53-4.608-.81-1.539-.281-2.979-.711-4.688-.726-.204-.001-.474.004-.605-.053-2.896-1.283-6.852-1.301-10.225-2.034-3.819-.83-7.932-1.331-11.899-2.002-1.51-.255-3.03-.342-4.622-.32-3.14.04-6.22-.181-9.25-.59-1.563-.21-3.17.314-4.746-.028-2.532.593-5.218.209-7.83.306-1.957.074-3.957.03-5.506.63-.825-.038-1.315-.547-2.132-.154-.193.093-.705.181-.836.13-1.813-.726-3.35.102-4.963.237-2.422.2-4.717.65-7.23.772-3.367.165-6.844.382-9.964.971-3.103.586-6.498.934-9.073 2.214-1.62.804-4.122 1.131-6.384 1.477-1.745.269-3.147.686-4.222 1.493-2.328.241-4.22 1.076-6.357 1.67a22.313 22.313 0 00-5.134 2.14c-2.197 1.251-4.663 2.385-7.617 3.234-.54.153-.97.402-1.435.614-2.303 1.053-4.65 2.08-7.268 2.947-1.108.366-1.568 1.018-2.755 1.398-.994.316-1.59.935-2.33 1.43-.178.118-.145.333-.352.414-2.88 1.145-4.484 2.86-7.595 3.939-1.402.486-2.434 1.402-3.011 2.23-.362.515-1.032.909-1.549 1.294-2.543 1.9-4.108 3.36-5.662 6.138-.188.337-.594.644-.915.963-1.187 1.184-2.27 2.397-3.596 3.542-2.18 1.883-2.951 3.951-3.899 6.026-.566 1.245-.743 2.592-2.455 3.691-.934.601-1.31 1.39-1.775 2.084-.351.521-1.07.862-1.457 1.284v1.568c-1.211 2.278-3.315 4.077-3.215 6.17.009.209.096.44-.049.623-1.862 2.346-2.357 4.883-4.211 7.237-.512.649-.822 1.335-1.375 1.997-.36.425-.958.908-.792 1.453.433 1.426-.613 2.721-1.669 3.993-.313.38.008.559.297.82-1.372.584-.34 1.642-1.876 2.193.376 1.237-.46 2.328-1.29 3.442-1.301 1.744-3.158 3.4-3.22 5.344-.022.62-.553 1.326-1.305 1.833-1.532 1.036-2.044 2.25-2.376 3.414-.46 1.604-1.56 2.995-3.242 4.374-1.193.975-2.772 1.944-2.655 3.207-1.192.658-1.173 1.6-2.398 2.294-.814.46-1.304 1.118-1.865 1.71-1.214 1.28-2.777 2.485-4.29 3.692-1.356 1.082-2.837 2.127-4.255 3.19-.052.04.008.131-.05.151-2.95 1.004-4.646 2.636-7.58 3.647-1.713.59-3.377 1.203-4.945 1.89a47.38 47.38 0 01-5.477 2.035c-1.184.354-2.695.441-4.048.687a297.48 297.48 0 01-14.303 2.27c-1.868.247-4.03.193-5.67-.586-1.835 0-3.654.012-5.467-.004-1.772-.016-3.52.05-5.292-.267-.948-.168-2.333-.251-3.316.234-.866-.454-1.998-.222-3.019-.277-.21-.012-.427 0-.564 0-2.232-.622-4.62-.927-6.99-1.266-2.358-.335-4.691-.715-7.03-1.083-.389-.062-.849-.122-1.113-.258-2.044-1.069-5.24-.914-7.513-1.729-1.138.29-2.034-.108-3.036-.242-1.214-.161-1.748-.777-2.768-.998-1.601-.344-3.03-.859-4.8-1.05-2.992-.324-5.445-1.194-7.837-2.08-.608-.224-1.253-.316-1.912-.455-3.28-.687-6.65-1.29-9.735-2.184-.628-.182-1.13-.47-1.666-.72-2.637-1.237-4.93-2.685-8.793-3.125-.716-.081-1.246-.552-1.867-.839-2.055-.954-4.35-1.75-6.632-2.57-1.698-.61-3.392-1.202-5.256-1.663-2.064-.51-3.319-1.436-4.985-2.151-.24-.103-.542-.202-.667-.335-1.364-1.454-4.157-1.97-6.931-2.338-1.628-.215-2.543-.69-3.403-1.253-.288-.191-.444-.48-.868-.619-1.185-.385-2.042-1.007-3.202-1.322-2.183-.592-3.718-1.557-5.826-2.17-1.173-.342-1.053-1.292-2.74-1.388-.684-.908-2.315-1.24-3.946-1.61-1.984-.452-3.051-1.428-4.622-2.12-.754-.335-1.43-.685-2.268-1-2.763-1.04-5.703-2.023-7.508-3.558-.408-.35-1.266-.368-1.767-.607-2.6-1.245-5.248-2.476-7.614-3.824-.504-.286-1.097-.574-1.587-.602-1.552-.087-2.355-.625-3.354-1.069a60.673 60.673 0 00-2.64-1.08c-1.629-.629-3.131-1.354-4.313-2.256-1.758-1.34-3.972-2.491-6.7-3.445-1.834-.642-3.601-1.441-4.747-2.483-.438-.4-1.184-.797-1.993-1.005-2.564-.664-3.928-1.882-5.888-2.812-2.63-1.245-4.647-2.81-7.93-3.742-1.073-.306-1.993-.812-2.736-1.314-1.922-1.303-4.533-2.283-6.591-3.518-.27-.161-.553-.378-.915-.433-2.711-.407-3.977-1.599-5.692-2.527-1.23-.665-3.027-.962-4.127-1.677-2.153-1.4-5.083-2.341-7.936-3.353a11.237 11.237 0 01-3.451-1.985c-1.157-.976-2.764-1.767-4.511-2.378-2.312-.81-4.18-1.806-6.134-2.776-1.042-.52-2.096-1.038-3.506-1.283-.662-.117-1.182-.3-1.486-.547-1.125-.914-3.06-1.439-4.294-2.335-1.84-1.338-4.641-2.29-7.265-3.227-2.25-.802-4.084-1.815-6.352-2.59-1.418-.487-2.89-.93-3.808-1.767-.575-.527-1.987-.996-3.207-1.158-2.208-.291-3.887-1.058-6.073-1.379-1.416-.207-2.475-.936-3.648-1.432-2.557-1.076-5.562-1.811-8.132-2.866-1.995-.823-4.211-1.52-5.725-2.26-9.185-1.977-17.012-4.639-25.418-7.187-2.344-.053-3.063-.247-5.889-1.174-1.105-.363-2.25-.759-3.451-1.015-2.557-.55-4.68-1.492-7.422-1.857-2.482-.331-3.936-1.484-6.332-1.953l-.833.247c-1.54-.548-3.64-.574-5.286-1.205-2.265.15-4.1-.228-5.94-1.006-1.41-.597-3.46-1.04-5.306-1.126-2.445-.113-4.56-.569-6.253-1.24-2.755-1.09-5.96-1.328-9.164-1.625-.985-.09-1.696-.322-2.529-.49-1.018-.204-1.75-.574-2.58-.845-2.255-.73-4.83-.859-7.29-1.202-.488-.068-1.052.044-1.514-.15-2.181-.908-5.102-1.037-7.536-1.703a20.537 20.537 0 00-4.707-.693c-2.281-.077-4.34-.642-6.343-1.108-2.482-.577-5.112-.77-7.704-1.037-1.138-.116-2.208-.24-3.229-.491-1.962-.482-4.04-.698-6.228-.834-2.341-.145-4.748-.147-7.03-.55-.663-.116-1.475-.023-2.215-.054-1.854-.077-3.776.214-5.565-.233-1.927.469-3.498-.213-5.237-.37-1.038-.093-2.14-.055-3.202-.012-1.14.045-2.314-.18-3.422.17-1.02.321-1.837-.36-2.937-.192-1.952.3-3.964.506-5.916.806-.416.064-.903.31-.599.632 1.046-.173 1.939.265 3.033.201 1.002-.057 2.064-.133 3.057.24.62.235 1.4-.02 2.001-.25.762-.022 1.212.351 2.055.319 2.837-.111 5.549.222 8.293.566 1.671.209 3.517.251 5.248.305 2.845.09 5.461.56 8.18.835.714.072 1.42.121 2.138.168 2.553.164 5.074.28 7.467.895 1.876.482 4.035.858 6.123.943 3.008.122 5.523.811 8.172 1.33 2.858.56 5.507 1.382 8.635 1.592.188.013.335.13.523.178 3.117.76 5.954 1.79 9.59 2.034 1.18.08 2.17.69 3.504.922 4.16.72 8.44 1.304 12.262 2.46 1.829.551 4.037.71 6.03 1.133 6.773 1.44 13.53 2.906 20.624 3.963 2.46.366 4.508 1.231 6.67 1.931 2.4.777 4.812 1.483 7.627 1.937 2.396.388 4.55 1.201 6.64 1.94.776.273 1.625.635 2.39.69 1.092.081 1.743.33 2.393.667.468.244.991.325 1.666.377.68.054 1.397.235 1.933.457 3.43 1.417 7.334 2.449 11.371 3.358 2.015.455 3.605 1.197 5.477 1.742.54.158.501.44.496.704.215.004.465-.025.634.02 2.273.579 4.487 1.221 6.656 1.877 3.441 1.041 6.534 2.357 9.94 3.431 4.072 1.285 8.058 2.6 11.283 4.396.422.235.874.477 1.408.639 3.321 1 6.512 2.075 9.046 3.552.555.325 1.644.438 1.933.733.446.452 1.184.723 1.775 1.079 2.834 1.704 6.653 2.878 10.11 4.205 3.175 1.216 5.282 2.91 8.57 4.016.602.826 2.08 1.295 3.25 1.884 1.019.513 2.015 1.028 3.355 1.4 1.151.318 1.745 1.02 2.643 1.502 2.954 1.586 6.16 3.06 9.234 4.591.474.237 1.03.38 1.606.457 2.976.397 4.876 1.527 6.362 2.652 1.83 1.38 4.334 2.28 6.945 3.24 1.07 1.59 3.844 2.55 6.256 3.608 1.007.442 1.955.84 2.739 1.395.922.651 1.573 1.474 3.37 1.752.114.018.062.294.087.45.406.014.623.118.645.318 3.1.277 5.216 1.275 7.007 2.43 2.494 1.606 4.985 3.236 8.197 4.486 2.173.846 4.057 1.813 6.06 2.728 1.095.5 2.11 1.038 3.18 1.55 1.326.633 2.55 1.334 3.974 1.89 2.712 1.058 5.448 2.092 7.895 3.3 2.107 1.039 4.1 2.146 6.378 3.086 1.9.781 3.327 1.942 6.077 2.053 1.415 1.405 4.178 2.062 6.364 2.984 2.094.882 4.108 1.782 5.794 2.842.462.29 1.037.465 1.502.696 1.998.982 4.802 1.527 6.256 2.789.803.008 1.63 0 1.595.574-.914.05-1.295-.232-1.551-.595-1.729.068-3.006-.342-4.133-.923-2.172-1.123-4.764-2.002-7.195-2.974-2.273-.907-4.486-1.905-6.109-3.258-2.025-.232-3.247-1.141-4.949-1.712-2.14-.717-3.577-1.791-5.662-2.47-2.192-.714-3.882-1.646-5.698-2.533-3.33-1.624-6.594-3.28-9.991-4.872-1.579-.74-3.27-1.46-5.129-2.006-2.866-.843-5.03-1.983-7.02-3.261-1.99-1.273-4.808-2.19-6.542-3.583-2.843-.73-4.405-2.052-6.259-3.24-.403-.014-.62-.117-.645-.317-1.288-.25-2.287-.687-3.321-1.13-1.454-.626-2.113-1.648-3.703-2.09-2.254-.625-3.43-1.726-5.368-2.487-1.383-.545-2.344-1.455-3.792-2.047-2.091-.856-3.817-1.877-5.706-2.824-3.52-1.763-7.617-3.226-10.993-5.066-.28-.15-.607-.323-.977-.386-1.293-.219-2.306-.717-2.79-1.218-.755-.783-2.165-1.11-3.398-1.516-.885-.291-1.628-.637-2.44-.957-2.093-.821-3.299-2.024-5.256-2.903-1.944-.875-3.915-1.744-5.815-2.629-1.865-.872-3.74-1.763-5.627-2.633-1.045-.48-2.352-.823-3.637-1.26-.433-.67-1.625-1.136-2.556-1.712-2.072-1.281-4.762-2.17-7.35-3.11-2.211-.804-3.967-1.889-6.474-2.502-.18-.045-.373-.132-.447-.222-.925-1.127-3.356-1.503-4.922-2.319-.797-.414-2.022-.783-3.378-1.01-1.892-.316-3.833-.777-5.322-1.476-1.982-.93-4.285-1.607-6.59-2.306-2.764-.836-5.04-1.967-7.34-3.078-1.32.2-1.824-.452-2.709-.678z" fill="#F2F4F9"/><path d="M131.47 49.848l.267.148c-.081.054-.153.148-.24.156-.072.006-.225-.086-.234-.14-.003-.05.132-.11.207-.164zm673.274 19.144c-.075.056-.177.166-.216.158-.354-.078-.363-.196-.027-.3.036-.012.16.092.243.142zm32.767 6.17c-.08-.05-.249-.115-.237-.145.117-.232.294-.24.45-.016.021.026-.135.106-.213.162zM258.47 82.849c.087.05.177.098.267.148-.081.056-.153.148-.24.156-.072.006-.225-.084-.231-.138-.006-.052.132-.11.204-.166zm684.26 11.132c-.076.058-.148.118-.223.176-.084-.052-.222-.1-.234-.158-.012-.048.126-.15.207-.154.078-.006.165.086.25.136zm-15.259-.132c.087.05.177.098.264.148-.078.056-.15.148-.237.156-.075.006-.225-.084-.23-.138-.007-.052.131-.11.203-.166zm8.274 1.144c-.075.056-.174.168-.219.158-.35-.076-.36-.194-.024-.3.04-.01.16.092.243.142zM558.728 191.98l-.219.176c-.084-.052-.225-.1-.237-.158-.009-.048.13-.15.207-.154.081-.004.168.086.25.136zm379-96c-.072.06-.147.118-.219.176-.087-.052-.225-.098-.237-.158-.009-.048.13-.15.21-.154.075-.004.165.088.246.136zm29.74 2.868c.09.05.18.098.266.148-.078.056-.15.148-.237.156-.075.008-.225-.084-.23-.138-.01-.052.128-.11.2-.166zm-65.476-9.886c-.132.082-.255.218-.405.234-.276.026-.765.044-.507-.276.156-.19.6-.166.912.042zm139.014 2.077c.135-.082.258-.22.408-.236.276-.026.765-.044.507.278-.153.188-.6.166-.915-.042zm-53.097 8.965c.393-.244.777-.286 1.182-.004-.387.266-.774.256-1.182.004zM159.872 60.036c-.399-.088-1.002.174-1.224-.294.657-.242 1.032-.132 1.18.322.266.034.578.036.515.314-.423.044-.42-.164-.47-.342zm484.968 56.976c-.188 1.405-1.489 2.65-2.323 3.958-1.065 1.663-1.537 3.402-2.882 5.038-.526.64-.441 1.467-.68 2.208-.247.763-.525 1.47-1.54 2.083.298.235.523.413.852.676-1.613 1.203-1.183 2.721-2.043 4.09-.85 1.36-1.118 2.842-2.612 4.068-1.666 1.361-1.587 2.936-2.59 4.368-.04.056.25.17.497.333-.899.373-1.582.843-1.253 1.496.25.024.542.024.48.222-.396.03-.393-.116-.438-.242-.938.045-.666.406-.705.686.688.111.935.275.107.65-.028-.286-.045-.478-.065-.67-1.958.688-1.216 1.733-1.407 2.686-.823.947-1.97 1.871-1.961 2.988.003.216-.025.416-.261.626-1.093.968-2.02 1.99-3.223 2.92-1.002.78-1.626 1.666-2.067 2.496-.52.975-1.753 1.832-1.8 2.892-.018.356-.403.814-1.214 1.044l-.023.013c-2.028.927-3.045 2.105-3.604 3.623-2.382.905-3.663 2.468-5.51 3.82-1.746 1.279-3.221 2.649-4.856 3.966-.343.276-.843.508-1.312.738-1.675.824-3.492 1.565-5.152 2.406-1.576.8-3.293 1.589-4.956 2.373-.671.314-1.483.484-2.225.65-.764.167-1.433.388-1.753.695-.632.602-1.455 1.027-2.677 1.317-2.582.615-4.366 1.804-6.9 2.46-1.042.271-1.966.618-3.28.59-1.265-.026-5.709 1.054-6.998 1.527-1.425.525-3.25.699-4.816.721-2.663.04-5.008.48-7.43.881.284.431 1.202.048 1.871.447-5.349.005-10.38.684-15.597.326-.053-.86-2.006-.401-2.652-.921-2.503.595-5.079.329-7.599.134-1.845-.143-3.596-.243-5.427.052-1.228.198-2.402-.227-3.619-.326-.584-.048-1.205-.176-1.854-.204-1.185-.052-2.382.115-3.573-.114-.986-.191-1.947-.601-3.127-.269-2.786-1.285-6.708-1.296-10.144-2.25h-2.848c-3.76-1.493-5.47-1.913-9.532-2.357-1.172-.127-5.374-1.125-6.225-1.501-1.318-.58-2.824-.956-4.52-1.17-.92-.116-1.79-.33-2.703-.457-.812-.113-1.447-.672-2.48-.265-.703-.968-3.065-.89-4.125-1.687-.792-.597-2.087-.957-3.632-.905-.632.02-1.011-.143-1.424-.335-.806-.373-1.75-.578-2.86-.688-1.725-.172-2.82-.99-4.45-1.259-3.464-.572-5.632-1.89-8.48-3.446-2.515-.93-6.636-1.39-9.072-3.113-.466-.33-1.242-.417-1.865-.626-3.383-1.132-6.512-2.445-10.102-3.436-1.135-.313-2.318-.663-2.975-1.395-1.107-1.233-3.93-1.777-5.27-2.968-.175-.154-.734-.214-1.135-.28-3.256-.534-4.152-.661-5.47-1.487-1.157-.723-3.363-.862-3.905-1.874-2.567-.254-3.511-1.64-5.823-2.106-.857-.173-1.742-.577-2.15-.991-1.016-1.03-2.913-1.629-4.326-2.458-.286-.167-.62-.41-.977-.431-2.512-.155-3.804-1.007-5.203-1.957-1.41-.955-3.158-1.864-5.377-2.368-2.91-.657-4.54-1.915-6.307-3.114-.53-.36-1.039-.79-1.8-.919-1.045-.178-1.602-.576-2.262-.921-2.345-1.233-4.615-2.5-6.9-3.748-.322.11-.592.2-.949.318-1.899-.675-4.068-1.18-5.104-2.366-.292-.332-1.042-.564-1.599-.834-2.508-1.214-4.851-2.5-6.683-3.999-.446-.363-1.312-.387-1.831-.639-2.383-1.156-4.697-2.348-7.052-3.52-.404-.202-.12-.576-.738-.732-1.916-.283-3.498-.743-4.335-1.747-.318-.382-1.208-.636-1.784-.973-1.632-.952-3.79-1.654-5.026-2.81-.62-.58-2.306-.541-3.312-1.026-.343-.795-.977-1.518-2.764-1.784-.523-.961-2.447-1.286-3.573-1.98-1.107-.683-2.385-1.3-3.636-1.923-.84-.418-1.69-.811-2.758-1.128-1.635-.488-2.807-1.296-4.09-2.006a23.534 23.534 0 00-5.012-2.084c-1.2-.339-1.972-.83-2.941-1.243.165-.114.292-.204.427-.299-.189-.403-.871-.147-1.29-.24-.77-.106-.48-.567-1.076-.769-4.582-1.556-7.27-4.08-11.568-5.776-2.599-1.028-4.532-2.375-6.964-3.458-1.405-.624-3.225-1.043-4.782-1.615-.44-.161-.997-.283-1.213-.52-1.866-2.037-5.136-3.354-8.799-4.524-1.452-.465-2.655-1.15-3.849-1.795-1.497-.807-3.261-1.414-5.216-1.975.022-.711-.77-1.199-2.003-1.517-2.189-.567-4.315-1.224-6.624-1.618-1-.171-1.784-.365-2.425-.728-2.2-1.247-4.986-2.047-8.023-2.751-.323-.284-.55-.669-1.222-.884-1.382-.44-2.68-.93-3.767-1.55-.34-.195-.815-.122-1.245-.129l-.025.013-.008.336c.25.024.542.024.48.22-.393.032-.393-.115-.438-.241-1.332.078-1.857-.435-2.529-.855l1.206-.293c-.849-.297-1.815-.292-2.65-.612-1.413-.541-3.146-.906-4.84-1.216-1.12-.205-2.261-.285-2.688-.951-.062-.095-.284-.226-.447-.232-2.115-.086-3.093-1.14-4.925-1.454-2.477-.427-4.205-1.466-6.537-2.02-.547-.13-.879-.49-1.11-.624-3.418-.155-5.837-.767-8.169-1.856-1.772-.827-4.169-1.467-6.531-1.9l-.899.311c-2.312-1.47-5.545-2.281-8.888-2.907-1.748-.328-3.523-.665-5.504-.795-2.407-.158-4.666-.886-7-1.371.165-.13.286-.222.539-.418-3.849-.41-7.414-1.13-10.942-1.899-1.003-.192-.854-.855-1.775-1.11-.2-.035-.39-.093-.599-.106-3.601-.221-7.118-.55-10.197-1.625-1.574-.547-3.287-.993-4.891-1.52-1.228-.404-2.748.041-3.961-.389-.073-.025-.385.176-.756.032-3.166-1.232-7.22-1.58-10.54-2.657-.905-.292-1.635-.236-2.346.123-4.871-1.5-10.338-2.172-15.718-2.984-2.129-.322-4.28-.55-6.436-.793-.1-.011-.185-.093-.272-.089-3.062.112-5.9-.496-8.793-.815-2.295-.256-4.65-.34-6.928-.522-3.18-.254-6.548-.23-9.83.035-.833.067-1.685.068-2.488.3-.236.327.657.488.54.936 2.528-.173 4.789.68 7.272.273l2.074.951c2.278-.5 4.47.338 6.632.106.627.266 1.24.438 1.087.974 1.436-.141 2.287.288 2.984.654 2.843.203 5.658-.302 8.273.508l-1.132.308c.02.037.03.106.059.109 2.037.16 3.607.883 5.587 1.136 2.04.26 3.987.724 6.038.945 1.216.13 2.194.414 3.216.694 1.388.383 2.742.796 4.211.988.938.168 1.402-.344 2.15-.321 2.072 1.01 4.466 1.733 6.893 2.429 1.014.29 2.073.483 3.262.624 2.132.255 4.351.577 6.034 1.383.463.22.952.24 1.506.226.539-.457.75-.458 1.286-.001.25.024.545.024.48.22-.393.033-.393-.116-.435-.242h-1.368c.186.485 1.09.663 1.615.97.526.108.883-.004 1.284-.212l9.032 2.266c1.646.065 3.922-.271 5.017.968 1.905.15 3.276.966 5.27 1.048 1.068.045 1.953.376 2.82.72a18.19 18.19 0 005.086 1.238c.264-.1.53-.198.93-.348 1.873.546 3.713 1.22 5.764 1.638 2.073.423 4.228.795 5.947 1.49a64.933 64.933 0 005.296 1.863c.96.084 1.267-.499 2.123-.188l-.365.378c.034.028.062.093.124.1 1.497.19 2.517.809 3.902 1.09 3.584.725 6.366 2.127 9.877 2.933 1.042.239 1.967.595 3.15.738 2.14.259 3.309 1.203 4.834 1.874 1.261.162 2.607.252 3.467.78.789.484 1.873.774 2.873 1.048 2.678.734 5.105 1.572 7.321 2.653 1.484.72 3.562 1.185 5.515 1.59 1.983.41 3.958.688 5.054 1.766.76.752 2.427 1.121 3.792 1.51 3 .86 5.425 2.105 8.366 2.995.728.22 1.5.579 1.778.96.728.994 2.557 1.318 4.068 1.75 2.382.682 2.722.711 4.349 1.704.696.427 1.604.766 2.303 1.191.672.407 1.843.485 2.357 1.045.152.162.742.435 1.14.656 2.647 1.457 5.552 2.769 8.985 3.744.89.255 1.632.539 2.036.997.56.636 1.574 1.144 2.636 1.438 2.236.62 3.517 1.556 4.435 2.722 1.725.242 2.734.916 3.945 1.507 2.657 1.302 4.87 2.851 8.152 3.815.725.829 2.447 1.285 3.214 2.04.646.638 1.798.926 2.452 1.562l.761-.766c.332.18.627.343.815.445.183.334-.146.496-.393.687.101.07.18.191.306.204.32.034.81-.05.964.035 1.812.997 4.669 1.422 5.893 2.74.175.19.5.369.84.5 1.787.687 3.062 1.572 4.408 2.474 1.245.837 3.267 1.38 5.295 2.192.801 1.428 2.886 2.64 5.914 3.373 1.936.468 2.556 1.458 3.792 2.184.83.486 1.762.947 2.47 1.487l.837-.284c1.076.543 2.169 1.127 3.34 1.667.787.363 1.458.762 2.497 1.032 1.557.401 2.234 1.276 3.065 2.037.888.808 1.765 1.638 3.695 1.959 1.66 1.41 4.994 1.91 6.815 3.312 1.579 1.218 3.96 2.195 6.568 2.917.904.252 1.654.536 2.065.984.84.912 2.29 1.61 3.87 2.06 2.032.577 3.096 1.71 5.338 2.102 1.526 1.39 3.65 2.48 6.442 3.233 1.107 1.459 4.472 1.55 6.295 2.605.514.298 1.425.533 1.902.872 1.388.983 3.23 1.708 4.947 2.52 1.753.83 3.574 1.69 5.546 2.27 2.042.604 3.63 1.494 5.733 1.997.593 1.273 2.366 2.093 4.453 2.664 1.374.376 2.596.87 4.172 1.147 1.632.287 2.93 1.088 4.3 1.703 1.532.687 2.785 1.508 4.86 1.886.945.17 1.624.71 2.383 1.063l-.452.415c2.705.682 5.208 1.488 8.121 1.883.843.113 1.458.648 2.135.967.065.399-.764.116-.806.508 1.671.497 3.531 1.074 4.953 1.917 3.306.332 5.32 1.757 8.208 2.446 2.093.5 4.318.912 5.478 2.077.436.438 1.59.638 2.366.804 1.828.393 3.149 1.308 5.47 1.27.718-.012 1.75.346 2.418.759 1.525.944 3.584 1.558 5.79 2.153h2.618c3.003.548 5.439 1.396 8.41 1.802 2.686.368 5.012 1.398 7.841 2.238.24.032.517-.317 1.054-.356 2.933.469 5.222 1.714 8.534 1.677-.132.358-.775.2-1.053.475l1.89.507c1.144-.18-.182-.442.413-.668 4.035 1.186 8.841 1.6 12.684 3.011 2.228-.144 4.458.224 6.709-.305 1.255.225 5.188.437 6.157.31.548.063.427.346.678.506.193.04.387.121.575.115 1.866-.048 3.54.358 5.304.546 1.93.206 3.838.297 5.88-.167 1.312.357 2.936.505 4.475.167.761-.168 1.455-.172 2.203-.195 2.039-.06 4.104.15 6.112-.305.734-.167 1.807-.137 2.61-.01 3.604.565 6.596-.2 9.782-1.022 2.169.198 4.293-.249 6.312-.732 1.905-.456 3.914-.818 5.683-1.43.863-.298 1.9-.42 2.981-.54 2.233-.246 4.548-.42 6.495-1.187 1.27-.499 2.992-.663 4.382-1.111l-.028-.014c-.233-.027-.539-.034-.446-.208.03-.052.289-.074.446-.11l.028-.014c.054-.118.068-.272.413-.225.104.015.15.147.22.225l.028.014c4.404-2.037 8.964-3.98 13.92-5.677-.25-.024-.543-.024-.481-.22.393-.033.393.115.438.241.63-.011 1.05-.246 1.211-.474.542-.761 1.722-1.303 2.922-1.675 1.517-.468 2.581-1.116 3.851-1.683v-.834l-.025-.014c-.233-.027-.542-.034-.45-.208.031-.052.293-.075.447-.11l.028-.015c.056-.116.07-.271.416-.224.104.015.149.147.219.224l.028.015c.745-.041 1.233-.341 1.478-.6 1.05-1.104 2.89-1.895 4.245-2.862 1.567-1.117 2.528-2.451 3.82-3.759 2.256-.335 2.717-1.491 3.675-2.43.27-.267.384-.476.89-.728 1.585-.793 2.72-1.833 3.04-2.936.28-.963 1.202-1.7 2.059-2.5 1.258-1.182 3.312-2.178 3.716-3.556.627-2.153 3.335-3.914 4.265-6 2.174-1.2 1.756-2.813 2.596-4.224.907-1.527 1.725-3.083 1.989-4.68.092-.56.789-.986.915-1.537.068-.28.517-.583.45-.92-.096-.465.19-.813.843-1.182 1.295-.732 1.18-1.836 2.534-2.64-.402-1.522.213-2.978 1.896-4.295-.163-2.145 2.413-4.049 1.994-6.193l1.33-.775v-2.48c1.853-1.393 1.713-3.07 2.626-4.592.09-.151-.315-.379-.495-.578 1.972-.913 1.475-2.433 3.214-3.384-.208-1.367.458-2.604 1.037-3.878.54-1.188 1.216-2.376 1.559-3.59.084-.287.219-.51.601-.73 2.25-1.294 2.939-2.835 2.714-4.546 2.295-1.475 3.489-3.165 3.334-5.091 1.04-.567 1.183-1.353 1.84-2.026 2.046-2.1 3.74-4.273 6.36-6.25 1.26-.95 2.164-2.06 3.47-3.042.612-.46 1.278-.869 2.006-1.268.651-.359 1.32-.68 1.764-1.157.972-1.053 2.565-1.863 4.576-2.468 1.031-.31 1.857-.754 2.503-1.28 1.284-1.04 2.99-1.856 5.237-2.36 1.486-.333 2.955-.65 3.54-1.535.157-.238.716-.412 1.103-.608 3.689-1.873 7.863-3.416 12.504-4.645 2.172-.576 4.273-1.219 6.414-1.825.182-.051.564-.023.612-.082 1.225-1.511 4.36-1.083 6.551-1.59.89-.206 2.11-.016 3.09-.358.781-.273 1.7-.443 2.596-.667.646-.06 1.026.53 1.711.27 1.21-.461 3.127-.108 4.009-.907.938.088 1.638-.39 2.421-.347 2.973.16 5.773-.522 8.743-.378 1.143.055 2.295.084 3.497-.241.835-.227 2.245-.166 3.18.028.866.18 1.655.22 2.515.232 3.008.036 6.107-.242 8.866.657 1.997-.088 3.722.396 5.567.636 1.189.154 2.082.547 3.24.676 1.584.073 3.255-.133 4.75.35.16.053.542-.034.638.023 2.337 1.397 5.902 1.377 8.953 1.927.997.18 1.98.366 2.96.572 1.557.328 2.917.963 4.793.826.61.485 1.854.2 2.618.568 1.124.54 2.641.628 4.11.763 1.86.173 3.599.42 5.369.885 2.758.724 5.48 1.623 8.756 1.788 1.419.071 2.29.874 3.632.943 1.439.075 2.68.248 3.967.583 2.523.654 5.074 1.299 7.765 1.778l.028-.014c.056-.116.07-.272.413-.225.107.016.149.147.222.225l.025.014c.955-.09 1.579.3 2.382.434.801.133 1.675.305 2.248.595.71.36 1.458.007 2.191.197 1.669.43 3.663.609 5.132 1.156 1.79.666 3.872.862 5.81 1.245 1.81.356 3.652.61 5.009 1.352.862.473 2.126.484 3.2.648.89.139 1.68.546 2.739.393 1.401 1.018 3.756.874 5.736 1.13 2.143.276 3.776.971 5.683 1.473.186-.185.374-.37.618-.61.888.087 1.742.208 2.276.647.373.062.938-.12 1.146.209-.621.172-.97.089-1.101-.232-.354.013-.602.09-.691.274.059.1.053.252.185.293 2.127.64 4.557.909 6.916 1.078 2.194.157 4.034.65 5.97 1.056 2.236.471 4.32 1.123 6.548 1.609.486.106 1.208.61 1.913.083.837.439 2.298.245 3.062.822.815.613 2.4.685 3.56 1.074.696.233 1.427.013 2.07-.22 1.318.71 3.191.522 4.807.757 3.37.492 3.374.49 4.936.184.848.793 2.022 1.452 3.739 1.852 1.525.355 2.817.948 4.626 1.116 1.894-.359 2.262-.387 3.728.115 2.644.907 5.742 1.27 8.636 1.874.742.154 1.716.023 2.396.023.68.288 1.172.498 1.573.666.857.062 1.183-.421 2.349-.24 2.155.882 5.25 1.024 8.231 1.35l.593.55c.78-.006 1.553.16 2.227-.118-.134-.271-.724-.161-1.1-.389.907-.249 1.845-.075 2.721-.123 1.464.638 3.136 1.123 4.801 1.615.082-.032.166-.068.256-.098.18-.06.455-.19.531-.165 2.025.653 4.512-.03 6.585.564.34-.171.885-.294.91-.617-.604-.079-.997-.25-1.185-.619 1.078.047 2.053-.21 2.94.164-.547.274-1.699-.138-1.803.477 1.956.743 4.363.605 6.785 1.068-.36-.345-.498-.48-.703-.674h7.4c1.702.683 3.837.895 6.07.936.265-.233.473-.416.68-.601 1.312-.148 2.574-.113 3.658.294 1.169-.024 1.986-.498 3.815-.297-1.306-.553-2.146-.396-2.894-.418-.766-.023-1.542.02-2.312-.012-.814-.03-1.69.142-2.592-.192 2.32-.318 4.739.256 6.89-.503 1.534.514 3.282.411 5.012.393l.026-.014c.154-.397.786-.291 1.295-.308 4.253-.146 8.498-.323 12.588-.996 1.452.25 1.899-.58 3.143-.72 3.804-.425 7.507-1.083 11.277-1.595.629-.085 1.02-.454 1.716-.336l.843.262c.494-.224.152-.54.421-.81 3.141-.798 6.568-1.365 9.501-2.43 1.728-.627 3.585-1.16 5.36-1.755 1.874-.628 1.86-.64 2.784-1.366 3.762-1.123 7.31-2.246 9.574-4.136.334-.278.82-.562 1.377-.71 2.317-.611 3.64-1.614 4.845-2.733.444-.412.874-.943 2.08-1.15 1.053-.183 1.747-.794 1.837-1.283.151-.824 1.41-1.186 2.188-1.732-.16-.114-.292-.205-.39-.273 1.634-1.183 4.517-1.905 4.562-3.664.014-.63 1.292-1.236 2.41-1.644V70.78c-.596.127-1.062.228-1.694.364-.601.233.03.787-.86 1.11-.637.232-1.303.719-1.286 1.082.053 1.059-1.461 1.637-2.4 2.403-1.814 1.482-4.247 2.727-6.149 4.166-.62.468-1.137.899-2.152 1.148-.286.07-.685.141-.789.264-.528.636-1.84.854-2.688 1.318-.748.41-.343 1.058-1.416 1.424-.764.263-1.61.594-1.832 1.17-1.197.42-3.11.48-3.486 1.46-1.326.234-1.778 1.16-3.633 1.06-.702-.038-1.508.36-2.382.358-1.826 1.798-5.905 1.724-8.529 2.5-.396.386.02.453.205.66-1.52.423-2.989.949-4.62 1.254-1.85.347-3.47 1.096-5.661.936-.06-.004-.169.175-.253.269.387.059.946-.112 1.188.205-.618.17-1 .111-1.143-.227h-.953c-.618.245.113.357.124.545-.944.62-2.686.56-3.835 1.078-.393.178-1.477.134-2.129-.18-.455-.22-1.023-.093-1.452-.088-.568.206.01.29.022.425-1.424.74-3.21.035-4.733.257l-.728.64c-2.705-.33-5.23.429-7.858.324-.272.252-.463.432-.67.625-.223-.212-.417-.4-.72-.687-1.312.49-2.832.385-4.33.385-5.18 0-10.362-.024-15.545.015-1.59.012-3.15-.086-4.816.245-1.202.24-2.876-.225-4.331-.36-.913-.087-2.158-.12-2.939-.553-1.197.255-2.258.46-3.66.111-1.4-.347-2.995-.596-4.678-.468a5.723 5.723 0 01-1.59-.096c-1.303-.268-2.7-.273-4.098-.332-1.32-.056-2.725-.187-4.102-.233-3.343-.976-7.113-1.35-10.686-1.98l-1.205.385c-.526-.535-1.425-.698-2.408-.866-3-.515-5.95-1.135-8.914-1.66-3.983-.704-7.972-1.394-11.905-2.175-.98-.195-2.082-.204-2.531-.795-.037-.048-.127-.117-.197-.12-2.39-.088-4.329-.994-6.61-1.054-2.118-.057-4.031-.419-5.835-.776-3.138-.622-6.419-1.17-9.138-2.262-1.68-.674-3.748-.968-5.728-1.336-.905-.168-1.81-.325-2.728-.673-3.618.14-6.843-.644-10.254-1.382.722-.39 1.579-.09 2.146-.522-1.458-.028-2.573-.568-4.048-.42-.047.126-.047.273-.44.242-.063-.198.23-.198.48-.22-.082-.095-.211-.278-.245-.273-2.424.322-4.188-.334-5.953-.998-.154-.058-.407-.05-.648-.075-.248.083-.512.175-.77.264l-1.509-.441c.15-.117.267-.21.39-.31-.134-.06-.255-.148-.418-.18-3.447-.673-6.99-1.25-10.33-2.042-2.143-.509-4.784-.403-6.545-1.468-.615-.375-2.118-.538-3.183-.63-2.017-.178-3.705-.773-5.759-.911-1.41-.096-2.834-.492-3.927-1.032-.716-.355-1.526-.508-2.492-.666-4.306-.705-8.416-1.675-12.616-2.526-3.152-.638-6.206-1.312-9.141-2.205-1.582-.48-3.824-.733-5.802-.505-.783-.212-1.415-.438-2.118-.558-.696-.119-1.463-.132-2.171-.188-.812-.174-.829-.63-1.315-.892-.52-.067-.876.048-1.25.239-1.568-.415-3.228-.778-4.714-1.27-1.528-.504-3.343-.232-4.958-.612-.84-.198-1.849-.53-3.065-.42-1.04.094-1.427-.39-1.722-.87-4.166-.487-8.147-1.373-12.406-1.828-.907-.096-1.817-.477-2.865-.676-4.023-.772-8.136-.944-12.347-.93-2.427.008-4.86.041-7.281-.01-2.621-.054-5.077.318-7.602.567-1.691.167-3.486.119-5.234.1-1.983-.02-3.81.143-5.573.648-1.557.446-2.857.465-5.706.456-.478-.001-.944.185-1.435.232-3.34.315-6.844.486-9.633 1.537-4.554 1.713-10.305 2.45-14.37 4.532-.789.404-1.955.28-2.848.695-1.652.766-3.408 1.424-4.756 2.39-1.48 1.06-3.9 1.698-5.928 2.51-.337.135-.823.222-1.014.394-1.14 1.038-3.25 1.488-4.958 2.194-2.287.947-4.385 2.009-6.102 3.275-1.837 1.356-4.082 2.571-6.506 3.691-.708.328-1.497.626-1.913 1.111-1.304 1.531-3.388 2.85-4.683 4.395-.781.933-1.88 1.782-2.155 2.828-.331 1.247-1.868 2.248-3.067 3.308-.998.88-2.102 1.728-2.63 2.805.12.365 1.042.701.388 1.278-1.585 1.4-1.916 3.029-2.863 4.544-.418.67-.868 1.307-1.576 1.885-1.365 1.112-2.124 2.32-2.59 3.589l.028.012c.23.029.54.036.447.208-.031.055-.292.075-.447.112l-.028.013c.326.627-.351 1.222-.79 1.686-1.221 1.288-1.345 2.656-1.96 3.99-.632 1.37-1.062 2.802-2.585 3.97.135.256.38.336.73.348.048-.126.048-.273.442-.242.062.196-.23.196-.48.22z" fill="#F2F4F9"/><path d="M877.224 85.778c2.135-.155 4.145.266 6.139.747 3.275.79 6.66 1.44 10.117 1.997 1.039.168 2.272-.161 3.163.343 3.21-.18 5.783.931 8.813 1.142.463.032.948.132 1.444.132 2.397.004 4.713.237 6.98.615.185.03.41.023.608.009 2.742-.21 5.352.448 8.081.318.39-.017.774-.02 1.166.103 1.987.634 4.23.56 6.42.502 2.09-.056 4.245.289 6.276-.246a2.472 2.472 0 011.428.072c.231.085.613.203.792.16 2.53-.614 5.212-.1 7.78-.296 1.13-.087 2.124.332 3.358.048 1.041-.241 2.41.148 3.537-.217 1.038-.338 2.41.099 3.453-.412.32-.158 1.18-.041 1.792-.028 2.514.054 4.908-.277 7.276-.633 2.997-.452 5.98-.922 8.926-1.452.911-.164 1.812.027 2.734-.162.711-.398 1.667-.677 2.706-.865 1.846-.333 3.768-.57 5.31-1.242.213-.092.538-.122.81-.175 6.196-1.199 11.161-3.388 16.51-5.272 2.603-.917 4.865-2.024 7.272-3.05 2.067-.882 3.614-2.034 5.897-2.784 3.012-2.505 7.49-4.461 10.172-7.102.851-.84 1.688-1.716 2.98-2.435.255-.142.536-.374.486-.538-.228-.741.883-1.157 1.571-1.62 1.405-.945 1.647-2.129 2.779-3.168-.431-.23-.924-.49-1.454-.771-1.262.185-1.904.804-3.337.916.61.94-1.202 1.35-1.48 2.122-.096.273-.24.608-.494.849-.296.283-.402.49-.114.757-1.67.32-1.667 1.452-3.326 1.773l.39.459c-2.86.932-4.28 2.52-6.4 3.814-2.383 1.456-4.468 3.063-7.13 4.368-1.535.754-2.896 1.691-4.965 2.166-.442.101-.803.316-1.138.508-1.428.821-3.134 1.418-5.255 1.643-1.05.112-1.42.75-2.535.769-1.55 1.186-4.134 1.64-6.432 2.263-1.423.385-2.252 1.2-3.947 1.335-1.597.127-2.39.916-3.877 1.162-2.25.374-4.4.878-6.326 1.635-6.365-.122-11.979 1.393-18.476 2.171-.161-.006-.686-.46-1.408-.272-1.64.429-3.536.128-5.201.536-.67.164-1.675.179-2.379.052-1.27-.228-2.599.284-3.604-.023-1.298-.397-2.563-.21-3.84-.253-1.32-.045-2.655.021-3.979-.017-2.02-.061-3.874.442-5.941.346-2.18-.102-4.293-.332-6.41-.569-.506-.057-.989-.083-1.48-.076-2.51.038-4.944-.134-7.296-.595a3.127 3.127 0 00-.595-.033c-5.225.013-9.961-1.08-14.926-1.654-2.67-.309-5.2-1.044-7.811-.845-3.124-.539-5.482-1.61-8.611-1.895-2.878-.262-5.384-1.234-7.95-1.277-3.136-.727-5.52-1.648-8.769-1.887-2.934-.214-5.845-.752-8.665-1.343-1.893-.397-3.887-.68-5.744-1.136-.356-.087-.815-.134-1.047-.275-2.178-1.343-5.726-1.294-8.37-2.162-1.123.138-1.531-.422-2.336-.627h-3.428a33.166 33.166 0 00-8.037-2.486h-2.9c-3.595-1.11-7.45-1.776-11.053-2.712-.334-.086-.786-.048-1.155-.11-1.29-.216-2.545-.417-3.776-.781-1.649-.49-3.34-.994-5.422-1.16-1.628-.128-3.132-.803-4.858-1.037-1.229-.167-2.369-.445-3.711-.474-1.865-.043-3.249-.723-4.578-1.305-1.205-.528-2.512-.773-4.018-.853-.587-.03-1.15.023-1.75-.155-3.321-.989-7.037-1.53-10.522-2.34-1.247-.288-2.207-.778-3.62-.992-1.714-.258-3.456-.388-5.178-.535-1.309-.11-2.485-.209-3.586-.633-2.135-.82-4.487-1.316-7.167-1.659-3.08-.396-6.113-1.04-9.076-1.682-1.467-.318-2.997-.494-4.485-.687-.97-.126-1.908-.265-2.768-.494-3.524-.938-7.138-1.7-11.197-1.756-.35-.005-.69-.184-1.05-.286-.752.089-1.357.358-2.256.323-1.828-.069-3.674.01-5.508-.026-4.822-.098-9.465.472-14.098 1.014-2.776.324-5.497.715-8.348.898-2.408.156-4.823.567-6.69 1.426-1.067.49-2.202.866-3.5 1.139-3.443.724-6.214 1.967-9.156 3.079-1.852.698-3.32 1.54-4.516 2.541-.678.567-2.03.778-3.083 1.144-3.601 1.256-6.551 2.834-9.34 4.543-1.426.872-2.335 2.055-4.695 2.521-.494.098-.857.428-1.174.685-2.823 2.295-5.461 4.614-6.84 7.285-.953 1.843-3.113 3.464-4.814 5.204.181 1.603-1.21 3.133-1.275 4.762-.01.273-.491.54-.753.812-1.922 1.979-3.688 3.974-4.147 6.216-.151.729-1.063 1.368-1.361 2.127-.468 1.188-1.156 2.348-1.039 3.692-1.535.62-1.407 1.697-1.654 2.577-.577 2.06-2 3.965-3.295 5.893-.787 1.171-.398 2.336-.616 3.68-1.584 1.133-1.636 2.678-2.449 4.111-.553.97-.576 1.973-1.033 2.952-.416.895-1.041 1.747-1.797 2.523-1.08 1.108-1.335 2.295-2.052 3.43-.498.797-.695 1.585-.537 2.367-.25.32-.345.652-.706.868-1.953 1.163-2.488 2.561-3.088 4.012-.758 1.841-1.628 3.667-3.87 5.302-1.588 1.16-2.412 2.614-3.352 3.978-.685 1-1.147 1.997-2.698 2.808-.838.44-.932 1.183-1.563 1.763-1.392 1.274-2.755 2.548-4.225 3.803-2.784 2.378-6.292 4.512-8.74 6.993-.221.222-.582.443-.99.577-3.542 1.17-6.032 2.904-9.078 4.341-1.18.558-2.26 1.177-3.709 1.552-1.384.358-2.391.926-3.464 1.463-.93.468-1.875.902-3.015 1.257-1.776.554-3.61 1.065-5.079 1.871-1.82.999-4.599 1.097-6.93 1.576-3.27.673-6.597 1.254-9.624 2.196-3.854.152-7.604.454-11.151 1.34-1.644.41-3.558.578-5.459.576-2.752-.002-5.51 0-8.343 0-.42-.18-.886-.377-1.478-.629-1.846.105-3.88-.24-5.79.303-.21.06-.582-.017-.873-.049-3.17-.35-6.469-.299-9.613-.761-.366-.053-.857.15-1.306.195-2.039.206-4.002-.184-5.908-.382-1.392-.143-2.753-.165-4.5-.271-3.781-1.282-8.562-1.72-13.117-2.48-1.272-.211-2.706-.32-3.62-.962-.319-.224-.966-.404-1.514-.452-2.43-.208-4.637-.822-7.034-1.031-1.447-.126-2.755-.417-3.768-.824-3.168-1.267-6.736-2.119-10.48-2.745-2.26-.378-3.909-1.15-5.812-1.759a33.851 33.851 0 00-3.677-.953c-4.332-.872-8.585-1.885-12.052-3.475-1.52-.697-2.628-1.694-4.552-2.123-5.038-1.126-8.868-3.125-13.158-4.758-3.742-1.423-8.165-2.46-11.026-4.466-1.47-1.027-3.503-1.772-5.196-2.62-.746-.039-1.338-.01-1.693.2-1.94-.406-3.158-1.182-4.309-2.023-1.29-.941-3.355-1.464-5.027-2.2-2.163-.95-4.716-1.624-6.365-2.927-1.106-.876-2.703-1.683-4.765-2.082-.509-.098-.893-.232-1.223-.42-3.243-1.86-7.289-3.281-10.641-5.086-2.657-1.432-5.64-2.702-8.396-4.077-1.623-.81-3.087-1.746-4.648-2.58l-1.99-.056c-2.386-1.436-5.559-2.526-7.603-4.165-1.64-1.32-3.832-2.401-6.09-3.427-1.884-.859-3.936-1.588-5.372-2.71-.784-.612-1.86-1.212-3.321-1.547-.613-.141-1.241-.415-1.569-.713-1.6-1.453-4.57-2.3-6.232-3.735-.53-.458-1.438-.845-2.423-1.15-1.74-.538-3.072-1.317-4.308-2.134-2.298-1.522-5.056-2.817-7.894-4.063-.42-.185-1.21-.315-1.358-.558-.517-.827-2.046-1.083-3.166-1.544-1.311-.541-2.664-.998-3.55-1.791-.508-.457-1.42-.845-2.422-1.142-2.623-.776-4.576-1.896-6.554-3.075-2.187-1.3-3.88-2.89-7.082-3.728-1.21-.315-1.81-1.012-2.856-1.476-3.132-1.39-6.329-2.747-9.196-4.291-.846-.454-1.345-1.007-2.145-1.469-1.153-.668-2.61-1.156-3.99-1.62-1.943-.655-3.208-1.696-5.342-2.21-.522-.125-1-.394-1.278-.658-1.366-1.296-3.667-1.897-6.243-2.38-1.566-.295-3.124-.66-4.269-1.353-.641-.387-1.57-.63-2.319-.947-3.077-1.298-6.609-2.279-9.462-3.747-1.533-.787-3.278-1.583-5.713-1.83-1.047-.104-2.148-.47-3.127-.843-1.415-.539-2.862-1.084-4.552-1.404-1.195-.226-2.054-.671-3.023-1.063-2.17-.878-4.931-1.327-6.85-2.398-1.418.033-2.415-.807-3.965-.498-2.015-1.013-4.36-1.74-7.05-2.163-.613-.066-.393-.438-.829-.575-2.682-.832-5.373-1.659-8.06-2.488-2.501.134-4.363-.91-6.783-.96a4.907 4.907 0 01-1.628-.328c-2.823-1.171-6.238-1.707-9.575-2.29-1.914-.334-3.534-.86-5.17-1.416-2.355-.797-4.856-1.38-7.847-1.246-2.415-.943-5.062-1.725-7.856-2.38-.449-.106-.883-.328-1.324-.327-2.093.006-3.69-.58-5.477-1-1.698-.4-3.342-.859-5.056-1.234-1.337-.292-2.763-.57-4.193-.645-1.28-.066-2.262-.352-3.288-.65-1.53-.445-3.095-.81-4.833-1.037-3.12-.406-5.951-1.243-9.158-1.588-1.205-.13-2.38-.086-3.488-.209-.737-.205-1.441-.399-2.223-.614a31.97 31.97 0 01-7.507-.598 18.503 18.503 0 00-4.09-.344c-2.244.056-4.492.015-6.702.015-1.774.182-2.792 1.237-4.955 1.023 1.49.045 2.077.943 3.474.864 1.46-.084 2.758.251 4.083.388 2.848.29 5.663.747 8.478 1.15 4.14.594 8.26 1.21 12.325 1.915 4.715.819 9.636 1.447 14.027 2.596 4.732 1.24 9.619 2.316 14.324 3.588 4.55 1.228 9.497 2.087 14.114 3.237 3.957.987 8.112 1.718 12.06 2.71 2.954.742 5.9 1.532 9.16 2.027 3.247.494 6.298 1.461 9.147 2.438 2.48.852 5.058 1.574 7.696 2.269 2.701.712 5.394 1.42 7.913 2.313 3.155 1.118 6.572 2.044 9.74 3.155 2.613.916 5.38 1.68 8.113 2.486.169.05.405.068.517.141 2.443 1.556 6.156 2.22 9.153 3.388 3.072 1.197 6.139 2.407 9.354 3.501 3.04 1.034 5.611 2.312 8.265 3.57 1.584.75 3.46 1.384 5.246 1.999 2.366.816 4.191 1.874 5.866 2.949 1.984 1.275 4.568 2.121 6.876 3.161.218.098.553.135.748.242 2.768 1.533 6.11 2.776 8.525 4.498.463.328 1.177.694 2.023.95 1.104.334 2.114.83 2.722 1.435.348.348.86.492 1.418.71 1.589.622 2.929 1.38 4.201 2.191a49.182 49.182 0 008.388 4.284c3.35 1.32 6.694 2.599 9.06 4.423.11.085.273.154.426.223 4.316 1.973 7.702 4.396 11.953 6.4 1.82.857 3.303 1.873 5.196 2.706 1.293.568 2.633 1.146 4.022 1.595 1.28.412 1.977.979 2.776 1.525 2.82 1.92 6.08 3.603 9.845 5.044.802.306 1.66.675 2.07 1.118.42.454 1.064.758 1.724 1.05 1.651.73 3.404 1.4 5.497 2.25.177.177.574.58 1.026 1.035.467.16 1.111.284 1.613.556 1.719.93 3.69 1.717 5.824 2.379.878.271.883.79 1.576 1.103 2.927 1.324 5.189 3.04 8.871 3.919 1.607 1.04 4.059 1.623 5.554 2.746.642.48 1.886.74 2.756 1.152 1.42.673 2.573 1.54 4.173 2.052 1.97.63 2.999 1.681 4.915 2.353 1.86.65 3.654 1.431 5.345 2.248 1.55.751 3.583 1.244 5.42 1.843.24.079.64.068.807.169 1.654.987 3.97 1.604 5.632 2.561 2.322 1.34 5.012 2.319 8.24 3.03 1.096.241 2.661.525 3.004 1.379.086.213.62.414 1.039.553 2.893.967 5.814 1.909 8.707 2.873 2.903.966 5.952 1.797 8.525 3.046 1.81.878 4.015 1.577 6.471 2.07a30.65 30.65 0 015.789 1.791c2.846 1.192 6.26 1.638 9.597 2.217.278.048.712-.045.891.034 2.288 1.007 5.529.992 7.897 1.995 1.288.545 3.046.876 4.796 1.121 2.646.37 5.043 1.067 7.466 1.73 1.823.5 3.77.95 5.858.702 3.493.981 7.09 1.642 10.787 2.145 1.047.142 2.309-.073 3.298.114 1.018.193 1.784.073 2.727-.004 1.033-.083 2.116.05 3.215.184 3.729.453 7.388 1.188 11.34 1.034.688-.026 1.37-.042 2.028.207.343.13 1.052.172 1.444.08 2.236-.525 4.596-.328 6.863-.257 2.56.078 4.944-.414 7.474-.358 2.443.053 4.905.07 7.343-.008 1.75-.056 3.49-.4 5.082-.698 4.861-.912 9.925-1.576 14.5-2.875.837-.237 1.847-.315 2.78-.463 4.627-.738 8.987-1.766 13.05-3.116.247-.082.582-.12.759-.228 2.724-1.683 6.396-2.808 9.556-4.233.304-.137.54-.339.888-.423 4.545-1.106 7.193-3.29 10.785-4.935.841-.385 1.192-1.037 1.87-1.528 1.596-1.157 3.087-2.37 4.949-3.409 1.246-.697 1.555-1.672 3.02-2.26 1.42-2.026 4.594-3.5 6.539-5.38 1.015-.98 1.955-1.978 2.63-3 .732-1.113 1.89-2.083 3.02-3.066 1.501-1.308 2.95-2.614 3.158-4.16.047-.342.45-.577.704-.826.602-.583.976-1.2 1.462-1.8 1.072-1.328 2.433-2.607 2.986-4.025.67-1.714 2.09-3.319 2.324-5.11.171-1.317.94-2.673 2.01-3.882 1.592-1.796 2.347-3.698 3.332-5.568.293-.55.703-1.036 1.277-1.696-.122-.753.086-1.657.94-2.479.26-.249.374-.489.286-.735-.314-.891.325-1.741.784-2.535 1.031-1.782 1.776-3.573 2.363-5.407.642-2.009 1.873-3.963 3.15-5.9.603-.907 1.109-1.814 1.099-2.796-.013-1.16.522-2.322 1.368-3.367.706-.87 1.174-1.811 2.246-2.614.974-.733.522-1.675 1.236-2.459.161-.175-.018-.44.174-.593 1.473-1.168 2.057-2.49 2.506-3.82.743-2.216 2.698-4.197 4.825-6.098 1.849-1.654 3.721-3.313 6.05-4.85a79.103 79.103 0 016.259-3.717 24.474 24.474 0 014.677-1.908c.34-.1.722-.196.97-.344 2.242-1.344 5.252-2.262 7.591-3.55 1.927-1.061 4.334-1.78 6.75-2.485 1.202-.35 2.48-.626 3.554-1.093 2.174-.944 4.942-1.217 7.575-1.537 3.142-.381 6.295-.735 9.336-1.293 1.254-.229 2.49-.299 3.801-.31 1.99-.02 4.04.212 5.94-.297.08-.022.204.005.303-.006 1.348-.15 2.436.404 3.796.331 1.301-.067 2.67-.08 3.945.05 3.254.332 6.365 1.047 9.6 1.3 2.467.193 4.311.923 6.542 1.269 2.24.348 4.456.75 6.627 1.2 3.443.714 7.094 1.16 10.379 2.076 4.443.04 7.837 1.556 11.854 2.176 3.48.537 6.547 1.568 10.13 1.995 1.561.188 3.026.694 4.581 1.013 3.994.821 8.022 1.588 12.07 2.334 2.3.424 4.498 1 6.72 1.532 4.625 1.107 9.5 1.937 13.982 3.2.682.193 1.355.153 1.994.259 1.579.265 3.233.509 4.622.952 3.163 1.008 6.806 1.248 10.218 1.848 2.296.403 4.66.71 6.77 1.385 1.314.42 2.83.691 4.306.96 2.29.418 4.253 1.249 6.757 1.39 1.451.743 3.529.604 5.279.855 1.337.192 2.64.409 3.854.716 2.908.738 5.816 1.457 8.932 1.948.652.102 1.229.331 1.966.536" fill="#F2F4F9"/><path d="M415.728 94.98c-.072.06-.147.117-.222.177-.084-.054-.222-.1-.234-.16-.009-.048.13-.15.207-.154.075-.004.168.088.25.136zm194.002 9c-.078.058-.15.118-.225.176-.084-.052-.222-.1-.234-.158-.012-.048.126-.15.21-.154.075-.006.162.086.249.136zm-116.26 22.868c.09.05.177.098.264.148-.078.056-.15.148-.237.156-.072.008-.225-.084-.23-.138-.007-.052.131-.11.203-.166zm94.274 4.143c-.072.056-.174.168-.219.158-.348-.076-.36-.194-.027-.298.042-.012.162.09.246.14zM372.51 71.162c-.08-.048-.249-.116-.234-.144.114-.234.288-.24.447-.018.018.026-.138.108-.213.162zm14.235 7.831c-.075.056-.177.166-.219.156-.35-.076-.363-.194-.03-.298.042-.012.162.092.25.142zm215.862 35.65c.258.276.33.506-.24.714-.177-.276-.348-.514.24-.714zm.265 2.902c.054-.178.054-.386.471-.342.069.28-.246.278-.516.31-.078.366.237.86-.699.942-.054.178-.054.386-.471.342-.069-.28.246-.28.513-.312.081-.364-.231-.858.702-.94zM404.477 88.014c.267.034.582.03.51.318-.4.026-.423-.164-.462-.346-.267-.034-.58-.034-.513-.314.42-.044.42.164.465.342zm453.914-50.5c-2.08-.12-3.79-.738-5.56-1.215-1.236-.334-2.49-.533-3.827-.726-.412-.25-.458-.667-1.179-.83l-.742.205a33.461 33.461 0 01-.314-.443c-.453-.183-.597.166-1.19.154l-2.902-.737c-3.741.117-5.358-1.713-8.948-1.949.175-.032-.242.045-.654.124l-.412-.49h-2.31l-2.091-1.002h-2.137c-1.128-.198-.9-1.083-2.326-.916l-.023.013c-.051.11-.064.257-.381.212-.095-.014-.134-.138-.2-.21l-.024-.015c-.953.081-1.455-.364-2.521-.422.623-.168.942-.253 1.836-.492-3.407.09-5.768-.611-8.189-1.22-.312.125-.6.278-1.063.218-.062-.029-.178-.057-.201-.098-.119-.236-.217-.478-.32-.71-.705-.1-1.413-.32-1.694.237.227.023.494.023.438.213-.343.017-.366-.11-.402-.233-1.754-.622-3.824-.922-5.706-1.421-1.365-.363-3.116-.546-4.651-.689-1.522-.142-2.465-.809-3.989-.814-.337-.001-.113-.403-.87-.508h-2.557c-1.51-.678-3.675-.866-5.308-1.558l-.02-.012c-1.34 0-2.697.033-3.624-.614l-.02-.012-.953.223c-1.264.07-1.854-.674-3.06-.914-1.92-.38-3.919-.562-5.86-.858-.976-.149-1.8-.392-2.717-.638-3.708.066-5.717-.147-7.187-.927-2.794-.153-5.506.24-8.271.308-.48-.206-.935-.405-1.473-.639-1.97-.025-4.051.1-5.88-.334-.597.279.18.38-.13.641-1.793 0-3.704.05-5.602-.018-1.308-.046-2.461.378-3.818.196-.778-.105-1.594-.3-2.73-.12-.464.213-1.13.521-1.826.843-.175-.178-.347-.348-.587-.589-1.267.161-2.624.702-3.927.023l-.026-.013c-.571.032-1.205-.125-1.704.131.11.257.659.146.896.302-1.074.664-2.882.348-4.115.806-2.691-.114-5.328.123-8.225.407l-.93.406c-1.728.485-3.139-.44-4.833-.02.5.13.84.22 1.194.313-2.003.661-4.228.95-6.548 1.097l-.023.012c-.402.39-1.223.512-1.893.573-.888.08-1.331.283-1.815.653-.572.439-1.355.917-2.604.37-2.387.926-4.833 1.803-8.088 1.872-.294.552-.242 1.295-1.973 1.214l-.023.012c-.744.863-2.482.647-3.775.903-.435.085-1.022-.02-1.09.351.23.023.498.024.44.209-.36.029-.36-.11-.403-.228-.974.15-1.468.601-2.13.938-.453.229-.909.342-1.52.318l-.022.012c-1.417.963-3.237 1.746-4.391 2.917-.345-.34-.52-.51-.747-.736-.633.9-2.462 1.281-3.116 2.14-.049.063-.561.031-.857.045-.047.117-.047.255-.407.225-.057-.186.211-.184.44-.205-.02-.165-.16-.28-.517-.333-.636.008-.979.233-1.247.505.126.09.24.174.402.289-.991.131-1.527.547-2.256.882.157.138.289.26.43.384-.28.18-.7.102-1.068.134l-.026.012c-.036.364-.788.235-1.097.421-.206.125.077.43-.515.404l-.544-.19-5.04 2.506-1.068-.291c-.507.341-1.547.5-1.434.995.381.42.865-.302 1.233.25l-3.425 1.231c-.51.307-.151.692-.334 1.093-.971.435-1.705 1.077-3.023 1.397-.17.041-.436.089-.472.16-.692 1.276-3.028 1.578-4.833 2.183-.28.31.234.468.556.755-.664.5-1.37 1.03-2.08 1.562-.467-.178-.302-.397-.366-.585l-.024-.012c-1.313.616-1.313.616-.733 1.438-1.412.744-2.097 1.685-2.565 2.603-.762.39-1.643.492-2.503.71-.24.221-.523.485-.811.753l1.006.569c-.319.564-1.769.43-2.183.936-.472.408.72.6.296 1.258-2.825 1.466-2.977 3.89-5.22 5.825-.265.23-.32.544-.693.806-.818.578-1.212 1.25-1.19 1.978.014.51.003 1.018.003 1.595-.386-.12-.55-.172-.95-.294-.453.736-.736 1.525-2.057 1.972-.13 1.198.332 2.398-.853 3.493-.226.21-.68.087-1.071.151-1.355.52-1.118 1.322-1.161 1.985-.443.24-1.185.138-1.177.506l.023.013c.35.016.654.174.543.289-.94.976-.466 2.07-1.048 3.102-.494.87-1.056 1.549-2.446 2.066-.11.04-.07.191-.098.293.381.29.623-.015 1.246-.093-1.022 1.313-1.54 2.604-1.267 3.968-.708-.077-.435-.368-.775-.483-.582-.016-.71.271-1.066.453.175 1.516-.16 3.014-1.187 4.46-.312.437-.888.824-1.836 1.131.381.854-.61 1.694-.533 2.639l1.19-.297c.113-.176-.222-.443.52-.566.03.283.092.496-.562.545-.02.254.15.578-.092.75-1.229.881-1.19 1.968-1.932 2.922l-.978-.226-.023.012-1.018 1.802c.598.208.93-.056 1.528-.23-.044.841-.186 1.572-1.674 2.033.247.833-1.28 1.53-.567 2.338-.52.337-.942.614-1.385.903l.548.536c-.95.927-1.663 2.302-1.712 3.308-2.434 1.445-2.434 1.447-2.042 2.434.198-.195.37-.372.6-.6.816.814-1.409 1.452-.211 2.095-.711.665-1.965.94-2.207 1.58l-.737-.2c-.414.287-.396.344.415 1.229-1.39.84-1.751 1.824-.505 2.878-.58.024.026.22-.345.135-.16-.036-.317-.077-.585-.143-1.763.27-1.745 1.191-2.212 1.876-.497.736-2.075 1.32-1.163 2.245-1.661.606-2.251 1.444-2.516 2.367l.02.012c.335.023.526.117.564.418-1.094.579-2.199 1.274-3.015 2.073l.025.012c.693.103.567.291.346.577-.461.603-1.473.962-2.171 1.45-.69.487-1.46.908-2.503 1.16.309.27.705.393.561.735-2.269.904-3.183 2.46-5.328 3.544-.384.192-.626.48-1.15.648-2.069.66-3.634 1.576-4.894 2.619-.64.396-1.586.05-2.27.27-1.922 1.341-1.93 1.323-5.929 1.867-1.357.185-2.269.773-3.389 1.278-1.37-.454-2.855-.433-4.377-.39-.474.082-.791.273-1.03.506.64.328 1.604-.045 2.472.38-1.872-.048-3.428.615-5.045.325-2.225-.397-4.751-.075-6.783-.83-.922.082-1.017.54-1.308.865l-1.298-.032c-.093-.298.595-.438.317-.733-.528-.326-1.388-.262-1.919-.148-1.946.419-3.77.415-5.74.01-.733-.153-1.81-.19-2.603.116-.657.254-1.354.115-2.019.144-.554-.173-.335-.462-.43-.707-2.26-1.123-5.281-1.168-8.106-1.448-1.077-.106-2.084-.16-2.807-.627l-.026-.013c-2.104-.244-4.293-.399-5.647-1.407-.775-.443-2.168.232-2.828-.457l-.023-.014c-1.365.056-2.446-.245-3.414-.67-.055-.362.584-.175.76-.32-1.1-.726-1.415-.754-3.678-.334-1.365-.304-2.392-.872-3.878-1.02-.28-.027-.466-.3-.698-.459l-.023-.013c-.907-.2-1.437-.623-2.102-.962-.45-.231-.906-.338-1.519-.29l-.02.012c-.034.18-.26.267-.577.291-1.149.088-2.091-.165-2.964-.49-.126-.242.206-.388.474-.625-1.03-.23-2.3-.23-3.07-.672-.873-.5-2.2-.393-3.366-.86.109-.746-1.24-1.158-2.237-1.685-1.293.102-2.776-.083-3.902-.476.132-.122.266-.243.394-.364-.698-.562-2.062-.562-3.141-1.018-.546-.683-1.507-1.307-3.253-1.54-.113.123-.262.29-.507.556-.896-.873-2.683-1.104-4.035-1.626-1.98-.763-3.206-1.89-5.269-2.563-1.494-.488-2.645-1.21-4.275-1.605-.324-.078-.664-.24-.674-.48-.23-.02-.5-.022-.44-.207.36-.03.36.108.398.227h1.24c-.31-.449-.938-.659-1.597-.966-1.097.09-2.207-.045-2.913-.61-.43.167-.713.326-1.254.273-1.705-.79-3.209-1.75-5.16-2.457l-.021-.012c-.204-.008-.515.026-.59-.03-1.09-.783-2.644-1.309-3.942-1.964-.9-.451-1.654-.777-3.078-.871-.195-.57-1.285-.886-2.006-1.354.868-.447-.193-.702-.35-1.087-1.8.338-3.237-.154-4.715-.55-.76-.235-.206-.712-.888-1.093l-1.829-.577c.034-1.634-3.27-1.556-4.712-2.451-.337.1-.664.195-.943.276-1.285-.307-1.882-.796-1.928-1.444l-2.153-.55c.103-.255.67-.113.896-.292-.35-.872-2.879-.712-2.995-1.652-.677-.248-1.432-.062-1.586-.089l-4.187-2.117 1.076-.265c-.348-.712-1.99-.586-2.279-1.214-.564.182-.811.262-1.012.324-2.137-.397-3.208-1.631-5.65-1.87-1.24-1.485-2.755-2.9-6.195-3.423.172-.154.309-.274.448-.397-.644-.461-1.52-.787-2.694-1.002-.113-.76-.806-1.452-2.057-1.742-1.324-.305-1.788-.9-2.424-1.318-.54-.184-.664.035-.937.07-.788-.297.106-.475.209-.715-.345-.172-.551-.439-1.144-.452l-.025.012c-.05.109-.062.255-.379.211-.095-.013-.137-.138-.2-.211l-.027-.012c-.919-.13-1.264-.819-2.523-.662-.235.03-.582-.242-.912-.344-.793-.244-.569-.737-.973-1.036-.392-.29-1.455-.286-1.602-.77-.03-.1-.028-.204-.039-.305l-.02-.012-3.587-1.165c-.253-.211.38-.355.494-.609l-.664-.374c-.726-.092-1.1.069-1.365.23-1.267-.441-.765-1.34-2.114-1.686-1.035-.266-1.988-.623-2.967-.937-.365-.375.925-.575.312-1.007-.75-.245-1.7.02-2.586-.149l-3.116-1.68.464-.422c-.25-.354-.595-.584-1.246-.65l-.026.013c-.05.109-.062.255-.376.21-.098-.014-.14-.137-.204-.21l-.023-.014c-1.159-.526-2.814-.742-3.643-1.553l.566-.513c-1.146-.095-1.916-.853-3.355-.52-.549-.497-1.012-1.043-.84-1.636l-1.841-.485c-.446.06-.595.176-.613.342.23.022.497.022.44.207-.36.03-.358-.108-.401-.227-1.893-.55-2.869-1.6-4.607-2.246-.708-.264-1.326-.593-2.336-.793-.386-1.23-2.498-1.795-4.215-2.493-1.34-.547-1.468-.464-1.6-1.022l-.025-.012c-.466-.186-.899-.41-1.416-.546-.42-.108-.943-.108-1.427-.157.154-.193.29-.365.443-.551-.211-.37-.724-.528-1.447-.666-1.115-.212-2.272-.55-2.8-1.095-.95-.979-2.801-1.372-4.29-2.002-2.758-1.168-5.727-2.216-7.862-3.732l-.023-.013c-.922.032-1.686-.174-1.725-.638-.041-.49-.52-.813-1.172-1.008-1.838-.551-2.933-1.633-5.23-1.887-.353-.038-1.913-.248-1.146-.976.119-.113-.777-.51-1.159-.75-.666.039-.399.33-.715.475-.984-.173-1.34-.853-2.516-.909-.513-.304-.09-.696-.358-1.048-.672-.32-1.092-.878-2.351-.77l-.023.012-.008.317c.229.022.494.022.44.207-.36.03-.36-.109-.404-.227-.5 0-1.002.012-1.355-.234-1.223-.858-2.9-1.419-4.635-1.972-1.421-.453-2.323-1.295-4.2-1.462-.227.087-.505.25-1.079.192-1.087-.635-2.81-1.087-2.959-2.208-1.15-.304-2.353-.622-3.489-.92-.373.128-.623.212-.868.297-.378-.404-.556-.911-1.748-.895-.824.012-1.262-.24-1.532-.604l-.026-.013c-.453-.037-1.066.09-1.19-.299l-.023-.013c-2.961-.826-5.56-1.942-8.475-2.803l-.028-.014h-1.133c-1.46-.243-1.659-1.021-2.562-1.458-.866-.26-1.816-.003-2.679-.163-.661-.304-1.413-.576-1.668-1.177-1.326.064-2.56-.253-3.943-.43l.4-.364c-.704-.587-1.852-.864-3.098-1.108l-.77.25c-.564-.242-1.247-.45-1.522-.856l-.026-.013c-1.898-.343-4.1-.285-5.622-1.15-.206-.116-.741-.093-1.13-.108-1.143-.047-2.127-.286-2.817-.74-.786-.513-2.13-.713-2.704-1.329-2.485-.013-3.994-1.295-6.368-1.35-1.661-.037-1.95-.52-2.122-1.217l-1.005.24c-1.22-.134-2.276-.51-3.502-.697-1.007-.153-2.18-.37-3.183-.668-1.089-.324-2.474-.3-3.386-.78l-.906.315c-2.498-.821-5.387-1.31-7.841-2.22-2.107.285-3.634-.783-5.676-.645-1.22-1.137-3.657-1.125-5.583-1.612-2.055-.52-4.14-.614-6.396-.552-1.808-.615-3.652-1.242-5.493-1.87l-.023-.011c-2.344-.316-4.667-.687-7.04-.923-.98-.099-1.386-.521-2.257-.691-1.702-.332-3.399-.69-5.124-.985-2.014-.344-4.133-.53-6.157-.865-2.096-.348-4.247-.546-6.296-1.076-2.318-.6-4.919-1.105-7.741-.695-1.352-.754-3.242-.838-4.888-.968-1.733-.137-3.422-.549-5.263-.388-1.187.104-2.168-.432-3.461-.33-1.03.081-2.086.032-3.19-.223-1.015-.232-2.388-.026-3.596-.069-2.57-.092-5.16.218-7.73-.27-1.066-.203-2.444-.13-3.603.002-.945.107-1.764.174-2.673-.014-.404-.083-.772.031-.816.298l.026.012c.636.116 1.135.363 1.926.337 2.382-.075 4.7.123 6.927.585.175.037.397.032.592.025 3.304-.113 6.508.633 9.837.251 2.153.752 4.633.969 7.028.956 2.55-.014 4.998.212 7.18.721 3.252.759 6.718 1.006 10.086 1.465.981.135 1.49.537 2.294.624 3.366.369 6.315 1.304 9.562 1.797 1.323.202 2.613.396 3.71.797 2.524.924 5.542 1.227 8.326 1.818 5.271 1.117 10.748 1.993 15.909 3.227 2.992.717 6.162 1.181 9.103 1.975 2.804.758 6.039 1.08 8.982 1.717 3.747.812 7.81 1.263 11.032 2.69 2.075.921 4.746 1.371 7.197 1.959 3.798.91 7.337 2.047 10.99 3.082 1.613.456 3.318.834 4.85 1.351 3.098 1.047 6.486 1.856 9.479 2.97 1.13.42 2.436.596 3.577 1.012 1.81.66 3.875 1.117 5.18 2.119.245.186.814.274 1.265.37 2.354.515 4.622 1.126 6.672 1.903 2.006.763 4.11 1.458 6.067 2.244.891.36 1.906.502 2.779.793 1.815.606 3.474 1.335 5.199 2.014.546.216 1.13.441 1.602.666 3.139 1.496 6.448 2.855 9.968 4.113 1.79.64 3.1 1.633 5.034 2.257.943.303 1.043 1.112 2.418 1.243 1.762 1.718 5.354 2.366 7.95 3.597.247.117.685.19.965.333 1.221.623 2.45 1.246 3.65 1.88 1.068.567 2.495.924 3.43 1.57 2.162 1.497 4.951 2.692 7.452 4.023.75.398 1.403.851 2.526 1.067.585.113 1.133.463 1.411.776.62.693 1.774 1.124 2.792 1.602.93.438 1.444 1.039 2.562 1.417 1.128.382 2.361.848 3.074 1.391.92.7 2.1.839 3.539 1.046 1.565.696 2.953 1.564 4.29 2.47 1.264.855 3.167 1.435 4.166 2.436l1.164.075c.446.599 1.55.931 2.225 1.428 1.733 1.274 3.96 2.267 6.17 3.307 1.422.67 2.665 1.52 4.074 2.243.953.49 1.658 1.222 3.35 1.165 1.502.773 3.085 1.509 4.484 2.327 2.054 1.203 3.607 2.646 6.051 3.66 3.376 1.4 6.18 3.121 9.492 4.535 2.488 1.062 4.671 2.263 7.038 3.376.713.336 1.218.774 2.449.805.875.023 1.509.522 1.998.893 2.503 1.89 6.088 3.208 9.263 4.744 2.348.33 3.705 1.32 5.343 2.123.515.253.927.53 1.151.864 2.897.727 5.477 1.602 7.198 3.071.94.8 2.73 1.164 4.161 1.702.484.182 1.015.352 1.352.59 2.096 1.474 5.287 2.195 8.112 3.157 1.545.526 2.95 1.038 4.21 1.804a21.436 21.436 0 005.69 2.42c2.403.63 4.62 1.361 6.477 2.39 1.486.826 3.505 1.284 5.328 1.88 3.49 1.135 6.968 2.28 10.172 3.628.463.195.95.345 1.473.495 2.202.637 4.285 1.387 6.51 2.001 1.444.397 2.61 1.086 4.426 1.137.397.012.763.32 1.27.55 2.807-.267 5.148.55 7.597 1.143 1.48.36 3.283.452 4.292 1.249 3.211.262 5.521 1.755 9.02 1.711 1.077-.013 2.228.342 3.25.62 3.011.826 6.132 1.39 9.593 1.21 1.723-.088 3.306.276 4.952.394 3.358.24 5.423.28 9.379-.04 2.075-.166 4.24-.032 6.365-.034 2.825-.002 5.524-.196 7.594-1.337 1.489-.077 2.367-.885 3.966-.86 1.246.018 2.338-.387 3.167-.729 1.396-.57 2.985-1.02 4.198-1.728 1.514-.884 3.147-1.722 5.271-2.235.567-.137.847-.377 1.192-.64 1.326-1.006 2.846-1.945 4.17-2.954a70.894 70.894 0 004.03-3.34c.643-.568 1.21-1.148 1.975-1.688 1.2-.848 2.111-1.795 2.562-2.843.147-.337.373-.709.793-.964 2.011-1.223 3.085-2.657 3.78-4.189.61-1.332 2.223-2.446 3.077-3.734.634-.957 1.216-1.892 1.479-2.9.216-.836.777-1.648 1.174-2.472.744-1.55 1.007-3.163 2.41-4.626 1.785-1.858 1.885-3.966 3.14-5.888 1.46-2.237 1.876-4.598 3.473-6.806.415-.573.157-1.195.4-1.809.468-1.189 1.434-2.285 1.938-3.453.343-.783.227-1.6.711-2.394.203-.334.44-.675.718-.98 1.44-1.57 2.352-3.209 2.344-4.941-.003-.593.582-1.063.69-1.624.263-1.361 1.192-2.631 2.423-3.84 1.236-1.208 2.235-2.441 2.436-3.839.137-.955 1.136-1.832 1.914-2.656.89-.94 1.066-1.93 1.627-2.88.713-1.198 1.424-2.374 2.397-3.533 1.468-1.75 3.1-3.453 4.746-5.153.87-.898 1.988-1.74 3.163-2.544.489-.335 1.158-.758 1.153-1.04-.051-1.74 2.686-2.606 4.458-3.667 2.142-1.284 3.978-2.67 6.002-3.99a30.59 30.59 0 013.737-2.087c1.29-.605 2.68-1.126 3.793-1.871 1.872-1.257 4.535-2.108 7.185-2.918.994-.302 2.27-.449 2.5-1.182 1.98-.547 3.196-1.568 5.011-2.187.762-.26 1.496-.523 2.053-.863 2.353-1.442 5.456-2.356 8.552-3.258 3.576-1.042 7.251-1.993 10.885-2.984 1.215-.332 2.415-.642 3.491-1.128 1.64-.743 3.894-.895 5.923-1.19 3.551-.51 7.172-.898 10.754-1.345 1.403-.175 2.735-.149 4.094-.248 1.824-.135 3.74-.141 5.12-.861 3.816-.223 7.568-.45 11.377-.437 1.122.004 2.423.117 3.476-.112 1.107-.238 2.451.052 3.188-.522 4.815.891 9.623.646 14.565.69l2.315.63c1.805-.212 3.597.184 5.369.438 5.894.846 11.508 2.1 17.163 3.293 1.414.3 2.943.477 4.45.627 1.759.174 3.018.974 4.882.978.796.668 2.261.56 3.436.75 1.957.322 3.481 1.154 5.541 1.288 4.458.287 8.076 1.706 12.27 2.341 1.141.862 3.292.538 4.767 1.09 1.324.496 2.902.871 4.476 1.115 2.83.44 5.364 1.184 8.019 1.807 2.642.622 5.544.957 8.13 1.625 2.608.674 5.337 1.187 8.028 1.731 1.618.327 3.067.662 4.152 1.308 2.454.058 4.408.69 6.255 1.327 1.406.485 3.048.569 4.493 1.002 1.37.411 3 .672 4.566.944 2.647.463 5.073 1.308 7.753 1.649a93.547 93.547 0 0113.535 2.747c3.36.945 6.904 1.567 10.458 2.231 1.509.284 3.237-.117 4.535.6 1.267.592 2.74 1.054 4.56 1.25 2.011.217 3.636.97 5.694 1.146 2.114.18 3.896.926 6.118.951.345.004.683.192 1.028.29 1.962.554 3.93 1.104 6.322 1.561 2.948-.235 5.791.586 8.75 1.07 2.825.46 5.603.883 8.621.831 2.266-.04 4.35.518 6.541.748.773.081 1.537.166 2.315.17 2.732.014 5.477-.069 8.192.038 1.292.051 2.338-.375 3.682-.217 1.205.142 2.516.195 3.796.186 1.313-.008 2.629-.005 3.947 0 2.086.01 4.043-.272 6.013-.607 2.583-.439 5.16-.872 7.924-1.002 1.174-.054 2.346-.493 3.384-.86a22.38 22.38 0 013.64-.963c1.6-.28 2.94-.76 4.37-1.203 2.491-.771 4.309-2.008 7.06-2.578.952-.198 1.701-.614 2.162-1.05.456-.429 1.105-.65 1.751-.948.61-.28 1.115-.614 1.81-.903 2.581-1.083 4.494-2.462 5.769-4.035-.404-.338-1.033-.35-1.177-.085-.275.506-1.071.742-1.666 1.078-1.138.645-2.137 1.426-3.36 1.93-1.3.538-1.94 1.24-2.998 1.806-.662.352-1.442.66-2.243.922-1.965.646-4.135 1.154-5.923 1.906-1.874.789-4.37 1.081-6.046 2.181-1.002-.127-2.083.039-2.956.34-3.719 1.278-7.957 1.587-12.232 1.835-.718.042-1.316.202-1.955.287-1.313.177-2.6.507-4.053.363-.561-.056-1.202-.079-1.704.182-.407.21-1.09.204-1.425.1-2.088-.65-4.578.079-6.656-.563-.52-.16-.899.234-1.314.24-1.805.023-3.638.067-5.41-.074-1.112-.087-2.106.32-3.29-.016-1.067-.302-2.398-.442-3.634-.48-1.205-.035-2.315-.265-3.461-.309-1.35-.052-2.511-.228-3.616-.647h-3.417l-1.287-.575-.948.255c-1.406-.312-2.544-.891-4.48-.505.427-.335.535-.422.646-.511-.42-.484-.84-.141-1.391.045-.984-.739-2.673-.187-4.025-.551-.736-.198-1.823-.28-2.325-.576-1.576-.927-3.817-1.007-5.82-1.311-1.597-.243-3.162-.481-4.797-.886l-.85.214c-1.571-.253-2.823-.922-4.574-.966-1.094-1.278-3.574-.963-5.956-1.371l-1.004-.687c-.958-.132-1.54-.148-2.16.194-1.026-.615-2.553-.813-3.91-1.225l-1.277.305c-2.524-.769-5.71-.975-7.385-2.524-1.919.347-2.993-.566-4.633-.73-1.988-.203-3.76-.819-5.895-.832-.713-.006-1.609-.206-2.098-.473-1.468-.804-3.575-1.027-5.24-1.644-.753-.277-1.79-.348-2.802-.409-.87-.053-1.399-.743-2.612-.584-.424.055-.76-.075-1.058-.229-.87-.449-2.09-.529-3.098-.796-.75-.2-2.044.041-2.415-.695-.16-.312-1.218-.199-1.97.148-.515-.598-1.916-.464-2.686-.905l-.023-.012z" fill="#F2F4F9"/><path d="M549.191 34.086c-.54 2.824-.918 5.67-.658 8.536.083.91.423 1.944 1.016 2.65 3.114 3.698 6.264 7.37 9.423 11.037l4.743 5.496a141.38 141.38 0 0015.89 15.719c4.414 3.724 8.992 7.26 13.874 10.445.784.512 1.565 1.03 2.344 1.55l2.34 1.557a128.22 128.22 0 004.742 3.022c2.927 1.759 5.96 3.38 9.04 4.903 5.373 2.657 10.78 5.262 16.247 7.743 1.498.68 3.072 1.22 4.653 1.742l1.356.446c.452.15.902.3 1.35.455l.816.284 1.63.573c1.36.475 2.724.936 4.11 1.325l2.483.697c3.311.927 6.632 1.833 9.993 2.567 8.658 1.896 17.451 3.06 26.324 3.641 8.946.587 17.892.557 26.852.064 8.775-.484 17.487-1.416 26.114-2.916 5.697-.989 11.36-2.212 16.963-3.593 6.05-1.494 12.088-3.096 17.991-5.017 3.722-1.21 7.37-2.623 11-4.078l4.832-1.949c8.024-3.227 15.65-7.163 23.068-11.46 8.66-5.016 16.945-10.5 24.506-16.89l1.062-.9c2.65-2.255 5.25-4.557 7.433-7.234.29-.355.5-.769.72-1.117-.228-1.126-.978-1.623-2.182-1.907l-.207.11-.45.227a7.254 7.254 0 00-.935.545c-9.44 6.741-19.202 13.041-29.724 18.244-5.122 2.531-10.34 4.905-15.573 7.233-6.32 2.811-12.838 5.205-19.487 7.241-2.653.813-5.338 1.536-8.031 2.237l-4.85 1.253c-.539.14-1.077.28-1.615.422-11.312 2.979-22.855 4.809-34.54 5.883-10.768.992-21.56 1.228-32.367.59-7.22-.425-14.392-1.18-21.506-2.439l-2.037-.364c-4.75-.858-9.478-1.796-14.092-3.178l-2.644-.808-5.273-1.653c-.88-.274-1.76-.544-2.643-.809-4.992-1.498-9.712-3.56-14.376-5.733l-1.644-.771-3.282-1.552-1.642-.772c-2.07-.967-4.053-2.104-6.014-3.276L613.4 82.34l-.734-.439-2.956-1.75c-2.297-1.367-4.577-2.757-6.769-4.259-6.028-4.13-11.63-8.73-16.751-13.828-6.257-6.23-11.847-12.959-17.23-19.847a62.365 62.365 0 01-.78-1.022l-1.15-1.548c-.896-1.202-1.813-2.387-2.859-3.464-1.113-1.149-2.409-2.148-3.726-3.123l-1.318-.972a89.597 89.597 0 01-.436-.325 15.868 15.868 0 00-1.481-.965l-1.142-.663c-.126-.074-.25-.148-.373-.223l-2.038.582c-1.087-.738-2.027-.423-2.91.217l-.211.16-.21.17-.207.177-.485.927c-.149.648-.318 1.29-.443 1.942zM292.809 44.632c-.262 1.84-.446 3.695-.32 5.562.04.594.206 1.267.493 1.727a798.692 798.692 0 004.567 7.193l2.298 3.582c2.354 3.665 4.916 7.086 7.701 10.244 2.14 2.427 4.358 4.73 6.724 6.807.38.333.759.67 1.136 1.01l1.134 1.014c.757.675 1.519 1.34 2.299 1.97a58.392 58.392 0 004.38 3.195 241.705 241.705 0 007.875 5.046c.726.443 1.488.795 2.255 1.135l.657.29c.219.098.437.196.654.297l.396.186.79.373c.658.31 1.32.61 1.992.863l1.203.454c1.605.605 3.214 1.195 4.843 1.674 4.196 1.235 8.458 1.993 12.758 2.373 4.335.381 8.67.362 13.013.04 4.253-.315 8.475-.922 12.656-1.9a94.275 94.275 0 008.221-2.341c2.932-.973 5.859-2.017 8.72-3.27 1.803-.788 3.571-1.71 5.33-2.657l2.342-1.27c3.889-2.103 7.584-4.668 11.18-7.468 4.197-3.27 8.212-6.843 11.876-11.008l.515-.586c1.284-1.47 2.545-2.97 3.603-4.714.14-.232.242-.501.349-.728-.11-.734-.474-1.058-1.058-1.243l-.1.071-.219.149a3.46 3.46 0 00-.453.355c-4.575 4.393-9.306 8.499-14.405 11.89-2.483 1.649-5.011 3.196-7.547 4.713a71.134 71.134 0 01-9.444 4.719c-1.286.53-2.588 1-3.893 1.457l-2.35.817-.783.275c-5.482 1.941-11.076 3.134-16.74 3.834-5.218.647-10.448.8-15.686.385-3.499-.277-6.975-.77-10.423-1.59l-.987-.237c-2.302-.56-4.593-1.17-6.83-2.071l-1.28-.527-2.556-1.077c-.427-.178-.854-.355-1.281-.527-2.42-.977-4.707-2.32-6.967-3.737l-.797-.502-1.59-1.011-.797-.503c-1.003-.63-1.964-1.371-2.914-2.135l-1.422-1.153a87.46 87.46 0 00-.356-.285l-1.433-1.141c-1.113-.891-2.218-1.797-3.28-2.775a65.561 65.561 0 01-8.118-9.012c-3.033-4.06-5.742-8.445-8.351-12.934-.128-.22-.253-.442-.378-.666l-.557-1.009c-.434-.783-.879-1.555-1.385-2.257-.54-.749-1.168-1.4-1.806-2.036l-.64-.633-.21-.212a7.905 7.905 0 00-.718-.628l-.554-.433-.18-.145-.988.38c-.527-.481-.982-.276-1.41.141l-.103.104-.101.11-.1.116-.236.604c-.072.422-.154.841-.214 1.266z" fill="#F2F4F9" opacity=".662"/></g></svg>