<?xml version="1.0" encoding="UTF-8"?>
<svg width="249px" height="37px" viewBox="0 0 249 37" version="1.1" xmlns="http://www.w3.org/2000/svg" xmlns:xlink="http://www.w3.org/1999/xlink">
    <title>Group 12</title>
    <g id="Page-1" stroke="none" stroke-width="1" fill="none" fill-rule="evenodd">
        <g id="Group-12">
            <g id="YourGoal" transform="translate(47.840000, 5.880000)" fill-rule="nonzero">
                <path d="M15.92,27.12 L15.92,16.2 L26.12,0.44 L19.68,0.44 L13.08,11.12 L6.48,0.44 L-1.13686838e-13,0.44 L10.24,16.2 L10.24,27.12 L15.92,27.12 Z M37.68,27.6 C45.72,27.6 51.6,21.84 51.6,13.8 C51.6,5.76 45.72,0 37.68,0 C29.6,0 23.72,5.76 23.72,13.8 C23.72,21.84 29.6,27.6 37.68,27.6 Z M37.68,22.56 C32.72,22.56 29.56,18.76 29.56,13.8 C29.56,8.8 32.72,5.04 37.68,5.04 C42.6,5.04 45.76,8.8 45.76,13.8 C45.76,18.76 42.6,22.56 37.68,22.56 Z M65.64,27.6 C73.76,27.6 77.68,23.04 77.68,16.44 L77.68,0.44 L71.88,0.44 L71.88,16.28 C71.88,20 69.76,22.56 65.64,22.56 C61.52,22.56 59.36,20 59.36,16.28 L59.36,0.44 L53.6,0.44 L53.6,16.44 C53.6,23.04 57.52,27.6 65.64,27.6 Z M86.64,27.12 L86.64,17.64 L90.8,17.64 L96.04,27.12 L102.6,27.12 L96.56,16.96 C99.44,16.28 102.44,13.72 102.44,9.04 C102.44,4.08 99,0.44 93.44,0.44 L80.96,0.44 L80.96,27.12 L86.64,27.12 Z M92.64,12.64 L86.64,12.64 L86.64,5.44 L92.64,5.44 C94.88,5.44 96.6,6.8 96.6,9 C96.6,11.28 94.88,12.64 92.64,12.64 Z" id="YOUR" fill="#31394D"></path>
                <path d="M117.64,27.6 C122.44,27.6 126.24,25.64 128.96,22.6 L128.96,12.36 L116.24,12.36 L116.24,17.32 L123.28,17.32 L123.28,20.52 C122.2,21.52 120,22.56 117.64,22.56 C112.76,22.56 109.24,18.84 109.24,13.8 C109.24,8.76 112.76,5.04 117.64,5.04 C120.44,5.04 122.72,6.64 123.96,8.52 L128.64,5.96 C126.64,2.8 123.16,0 117.64,0 C109.8,0 103.4,5.36 103.4,13.8 C103.4,22.2 109.8,27.6 117.64,27.6 Z M144.16,27.6 C152.2,27.6 158.08,21.84 158.08,13.8 C158.08,5.76 152.2,0 144.16,0 C136.08,0 130.2,5.76 130.2,13.8 C130.2,21.84 136.08,27.6 144.16,27.6 Z M144.16,22.56 C139.2,22.56 136.04,18.76 136.04,13.8 C136.04,8.8 139.2,5.04 144.16,5.04 C149.08,5.04 152.24,8.8 152.24,13.8 C152.24,18.76 149.08,22.56 144.16,22.56 Z M162.36,27.12 L164.04,22.6 L175.48,22.6 L177.16,27.12 L183.6,27.12 L173.32,0.44 L166.2,0.44 L155.92,27.12 L162.36,27.12 Z M173.92,17.6 L165.6,17.6 L169.76,6.12 L173.92,17.6 Z M200.84,27.12 L200.84,22.12 L189.56,22.12 L189.56,0.44 L183.84,0.44 L183.84,27.12 L200.84,27.12 Z" id="GOAL" fill="#7076F0"></path>
            </g>
            <g id="Group-11">
                <path d="M44.9756,20.7125138 C44.9756,28.3925138 38.7644,34.6058138 31.0922,34.6058138 C23.4203,34.6058138 17.2034,28.3925138 17.2034,20.7125138 C17.2034,13.0571138 23.4203,6.83241383 31.0922,6.83241383 C38.7644,6.83241383 44.9756,13.0571138 44.9756,20.7125138" id="Fill-27" stroke="#7076F0" stroke-width="3"></path>
                <path d="M31.0922,27.6467138 C27.2669,27.6467138 24.1676,24.5423138 24.1676,20.7125138 C24.1676,16.8968138 27.2669,13.7966138 31.0922,13.7966138 C34.9172,13.7966138 38.0219,16.8968138 38.0219,20.7125138 C38.0219,24.5423138 34.9172,27.6467138 31.0922,27.6467138 Z" id="Fill-28" fill="#C9CCFA"></path>
                <g id="Group-13" transform="translate(16.022455, 11.330650) scale(-1, 1) translate(-16.022455, -11.330650) translate(0.022455, 0.830650)" fill="#0A0B09">
                    <path d="M17.154512,10.3804741 L17.9030366,10.4279233 L18.1749637,6.14206617 L25.1640623,2.10004963 L24.9835113,4.99009551 L16.7793849,9.73115918 L17.154512,10.3804741 L17.9030366,10.4279233 L17.154512,10.3804741 L17.5299288,11.0298666 L26.0823727,6.08770179 C26.2995199,5.96233176 26.440147,5.73539607 26.4556357,5.4851789 L26.7483739,0.797102801 C26.7657692,0.520065218 26.6308091,0.25873018 26.3947197,0.112855197 C26.1587081,-0.0333095638 25.8648619,-0.0378161099 25.6244893,0.101208018 L17.0763921,5.04453754 C16.8592448,5.16990757 16.7191405,5.39605158 16.703362,5.64619109 L16.4059874,10.3330249 C16.388592,10.6100624 16.5234746,10.8716873 16.7591965,11.0177744 C16.9951305,11.1642289 17.2896339,11.168601 17.5299288,11.0298666 L17.154512,10.3804741" id="Fill-30"></path>
                    <path d="M17.4052928,10.2802664 L17.0707515,10.9515543 L21.277822,13.0475434 C21.5022608,13.1592384 21.7706329,13.1510181 21.9874904,13.0255704 L30.530366,8.08550052 C30.7688238,7.94782683 30.9133555,7.68777325 30.9047373,7.41277228 C30.8958293,7.13769365 30.7349998,6.88713016 30.4886211,6.76458712 L26.2856379,4.67652606 C26.0611215,4.56512089 25.7942759,4.57343963 25.5771286,4.69880966 L17.0302433,9.63066175 C16.7921529,9.76812331 16.6473315,10.0280992 16.6556599,10.3030226 C16.6639107,10.5782357 16.8244504,10.8287215 17.0707515,10.9515543 L17.4052928,10.2802664 L17.7800524,10.9297935 L25.9786203,6.19904254 L28.5702432,7.48636848 L21.5857866,11.5249701 L17.7398341,9.60897851 L17.4052928,10.2802664 L17.7800524,10.9297935 L17.4052928,10.2802664" id="Fill-32"></path>
                    <path d="M1.38687773,20.4240361 C0.946657235,20.6853011 0.384488404,20.5346684 0.126344523,20.0862773 C-0.132208391,19.6405718 0.0185795848,19.0778234 0.46441396,18.8245849 L29.7265828,1.92712453 C30.171527,1.67488989 30.7418096,1.82769665 30.9943604,2.26682453 C31.2535761,2.70773826 31.1013905,3.27570264 30.6546604,3.53460218 L1.38687773,20.4240361" id="Fill-33"></path>
                </g>
            </g>
        </g>
    </g>
</svg>